<?xml version="1.0" encoding="UTF-8"?>
<svg width="396px" height="308px" viewBox="0 0 396 308" version="1.1" xmlns="http://www.w3.org/2000/svg" xmlns:xlink="http://www.w3.org/1999/xlink">
    <!-- Generator: Sketch 47.1 (45422) - http://www.bohemiancoding.com/sketch -->
    <title>Automatic Sync</title>
    <desc>Created with Sketch.</desc>
    <defs>
        <linearGradient x1="114.703267%" y1="147.972788%" x2="0%" y2="0%" id="linearGradient-1">
            <stop stop-color="#00ACE0" offset="0%"></stop>
            <stop stop-color="#B36CDB" offset="100%"></stop>
        </linearGradient>
        <path d="M2.749,0.542 C1.649,0.542 0.749,1.441 0.749,2.541 L0.749,28.839 C0.749,29.94 1.649,30.84 2.749,30.84 L29.047,30.84 C30.147,30.84 31.047,29.94 31.047,28.839 L31.047,2.541 C31.047,1.441 30.147,0.542 29.047,0.542 L2.749,0.542 Z" id="path-2"></path>
    </defs>
    <g id="Sync-Gateway" stroke="none" stroke-width="1" fill="none" fill-rule="evenodd">
        <g id="Automatic-Sync" transform="translate(1.000000, 2.000000)">
            <g id="Group-5" transform="translate(0.000000, 155.000000)">
                <g id="Group" transform="translate(300.678200, 66.000000) rotate(-90.000000) translate(-300.678200, -66.000000) translate(237.678200, 23.500000)">
                    <polygon id="Fill-35" fill="url(#linearGradient-1)" fill-rule="nonzero" transform="translate(66.799376, 42.227181) rotate(90.000000) translate(-66.799376, -42.227181) " points="25.1929685 89.4608237 108.405783 89.4608237 108.405783 -5.00646264 25.1929685 -5.00646264"></polygon>
                    <path d="M104.377474,99.3347508 C104.377474,102.464662 101.790247,105.025426 98.6272784,105.025426 L26.8225099,105.025426 C23.6603442,105.025426 21.0731178,102.464662 21.0731178,99.3347508 L21.0731178,-14.5036274 C21.0731178,-17.6335385 23.6603442,-20.1943019 26.8225099,-20.1943019 L98.6272784,-20.1943019 C101.790247,-20.1943019 104.377474,-17.6335385 104.377474,-14.5036274 L104.377474,99.3347508 Z" id="Stroke-37" stroke="#010202" stroke-width="4" stroke-linecap="round" stroke-linejoin="round" transform="translate(62.725296, 42.415562) rotate(90.000000) translate(-62.725296, -42.415562) "></path>
                    <path d="M14.0668939,42.6643319 C13.929583,45.1014723 11.8418149,46.9654512 9.40394421,46.8281815 C6.96607347,46.6909117 5.10153597,44.6037691 5.23884687,42.1666287 C5.37615777,39.730291 7.46392586,37.8655094 9.9017966,38.0027791 C12.3396673,38.1400489 14.2042048,40.2271915 14.0668939,42.6643319 Z" id="Stroke-39" stroke="#010202" stroke-width="2.4057" transform="translate(9.652870, 42.415482) rotate(90.000000) translate(-9.652870, -42.415482) "></path>
                    <path d="M-22.7444392,41 L59.7272183,41" id="Stroke-41" stroke="#010202" stroke-width="2.4057" stroke-linecap="round" stroke-linejoin="round" transform="translate(18.491390, 42.202850) rotate(90.000000) translate(-18.491390, -42.202850) "></path>
                    <path d="M71.7223657,41 L154.194023,41" id="Stroke-43" stroke="#010202" stroke-width="2.4057" stroke-linecap="round" stroke-linejoin="round" transform="translate(112.958194, 42.202850) rotate(90.000000) translate(-112.958194, -42.202850) "></path>
                    <g id="Group-3" transform="translate(68.000000, 44.000000) rotate(90.000000) translate(-68.000000, -44.000000) translate(53.000000, 25.000000)">
                        <path d="M28.7810194,6.60610641 C28.7810194,9.94714011 22.5153062,12.655609 14.7865493,12.655609 C7.05779244,12.655609 0.792079208,9.94714011 0.792079208,6.60610641 C0.792079208,3.26507271 7.05779244,0.556603774 14.7865493,0.556603774 C22.5153062,0.556603774 28.7810194,3.26507271 28.7810194,6.60610641 Z" id="Stroke-83" stroke="#FEFEFE" stroke-width="1.6038"></path>
                        <path d="M28.8966497,31.1886792 C28.8966497,34.5297129 22.6052408,37.2381819 14.8443644,37.2381819 C7.08348805,37.2381819 0.792079208,34.5297129 0.792079208,31.1886792" id="Stroke-84" stroke="#FEFEFE" stroke-width="1.6038"></path>
                        <path d="M0.792079208,5.96226415 L0.792079208,30.9549944" id="Stroke-85" stroke="#FEFEFE" stroke-width="1.6038"></path>
                        <path d="M28.7227723,5.96226415 L28.7227723,30.9549944" id="Stroke-86" stroke="#FEFEFE" stroke-width="1.6038"></path>
                        <path d="M8.39342612,24.9813941 C8.39342612,24.8352941 8.42313666,24.4748606 8.42313666,24.3094947 C8.42313666,23.5500959 8.11157742,23.3068635 7.35195104,23.3068635 L7.0990099,23.3068635 L7.0990099,22.1773982 L7.35195104,22.1773982 C8.11157742,22.1773982 8.42313666,21.9341658 8.42313666,21.174767 C8.42313666,21.0094011 8.39342612,20.6489676 8.39342612,20.5028676 C8.39342612,19.5098694 8.89047552,18.8869376 10.6723053,18.5754717 L10.9348823,19.558837 C9.90304304,19.8510369 9.74726342,20.1231682 9.74726342,20.7172011 C9.74726342,20.9122687 9.77697397,21.2333676 9.77697397,21.4380681 C9.77697397,22.1484993 9.41643248,22.5281987 8.76360346,22.7425322 C9.41643248,22.9568657 9.77697397,23.3365651 9.77697397,24.0469964 C9.77697397,24.2508942 9.74726342,24.5727958 9.74726342,24.7670606 C9.74726342,25.3610935 9.90304304,25.6340275 10.9348823,25.9254247 L10.6723053,26.90879 C8.89047552,26.5973241 8.39342612,25.9743923 8.39342612,24.9813941" id="Fill-87" fill="#FEFEFE" fill-rule="nonzero"></path>
                        <polygon id="Fill-88" fill="#FEFEFE" fill-rule="nonzero" points="11.6039604 25.5384616 13.1818313 25.5384616 13.1818313 23.9811321 11.6039604 23.9811321"></polygon>
                        <polygon id="Fill-89" fill="#FEFEFE" fill-rule="nonzero" points="14.3069307 25.5384616 15.8839986 25.5384616 15.8839986 23.9811321 14.3069307 23.9811321"></polygon>
                        <polygon id="Fill-90" fill="#FEFEFE" fill-rule="nonzero" points="16.1089109 25.5384616 17.6867818 25.5384616 17.6867818 23.9811321 16.1089109 23.9811321"></polygon>
                        <path d="M17.9108911,25.9254247 C18.9435333,25.6332248 19.0993129,25.3610935 19.0993129,24.7670606 C19.0993129,24.571993 19.0696024,24.2508942 19.0696024,24.0461936 C19.0696024,23.3357624 19.4301439,22.956063 20.0821699,22.7417295 C19.4301439,22.5281987 19.0696024,22.1484993 19.0696024,21.4372653 C19.0696024,21.2333676 19.0993129,20.9122687 19.0993129,20.7172011 C19.0993129,20.1231682 18.9435333,19.8510369 17.9108911,19.558837 L18.1742711,18.5754717 C19.9561008,18.8869376 20.4523472,19.5098694 20.4523472,20.5028676 C20.4523472,20.6489676 20.4234397,21.0094011 20.4234397,21.174767 C20.4234397,21.9341658 20.7349989,22.1773982 21.4946253,22.1773982 L21.7475664,22.1773982 L21.7475664,23.3068635 L21.4946253,23.3068635 C20.7349989,23.3068635 20.4234397,23.5500959 20.4234397,24.3094947 C20.4234397,24.4748606 20.4523472,24.8352941 20.4523472,24.9813941 C20.4523472,25.9743923 19.9561008,26.5973241 18.1742711,26.90879 L17.9108911,25.9254247 Z" id="Fill-91" fill="#FEFEFE" fill-rule="nonzero"></path>
                    </g>
                </g>
                <g id="Group-11" transform="translate(79.000000, 0.000000)">
                    <path d="M159.654,121.929243 L5.78215271,121.929243 C3.0998867,121.929243 0.905305419,119.740054 0.905305419,117.064378 L0.905305419,5.68735135 C0.905305419,3.01167568 3.0998867,0.822486486 5.78215271,0.822486486 L159.654,0.822486486 C162.336266,0.822486486 164.530847,3.01167568 164.530847,5.68735135 L164.530847,117.064378 C164.530847,119.740054 162.336266,121.929243 159.654,121.929243" id="Fill-5" fill="#FEFEFE" fill-rule="nonzero"></path>
                    <path d="M159.654,121.929243 L5.78215271,121.929243 C3.0998867,121.929243 0.905305419,119.740054 0.905305419,117.064378 L0.905305419,5.68735135 C0.905305419,3.01167568 3.0998867,0.822486486 5.78215271,0.822486486 L159.654,0.822486486 C162.336266,0.822486486 164.530847,3.01167568 164.530847,5.68735135 L164.530847,117.064378 C164.530847,119.740054 162.336266,121.929243 159.654,121.929243 Z" id="Stroke-7" stroke="#010202" stroke-width="3"></path>
                    <path d="M162.447865,0.794108108 L3.12776601,0.794108108 C1.78094335,0.794108108 0.689342365,1.88302703 0.689342365,3.22654054 L0.689342365,95.8081622 L164.886288,95.8081622 L164.886288,3.22654054 C164.886288,1.88302703 163.794687,0.794108108 162.447865,0.794108108" id="Fill-9" fill="#010202" fill-rule="nonzero"></path>
                    <polygon id="Fill-13" fill="#010202" fill-rule="nonzero" points="78.2555172 112.688108 87.1801478 112.688108 87.1801478 103.784595 78.2555172 103.784595"></polygon>
                    <path d="M42.8739901,148.942703 L122.561675,148.942703" id="Stroke-15" stroke="#010202" stroke-width="2.43" stroke-linecap="round" stroke-linejoin="round"></path>
                    <path d="M52.1708867,148.942703 C52.1708867,148.942703 66.3373153,146.292973 66.3373153,122.445405" id="Stroke-16" stroke="#010202" stroke-width="2.43" stroke-linecap="round" stroke-linejoin="round"></path>
                    <path d="M114.150414,148.942703 C114.150414,148.942703 99.9839852,146.292973 99.9839852,122.445405" id="Stroke-17" stroke="#010202" stroke-width="2.43" stroke-linecap="round" stroke-linejoin="round"></path>
                    <polygon id="Fill-21" fill="url(#linearGradient-1)" fill-rule="nonzero" points="6.99014778 89.0724324 158.586133 89.0724324 158.586133 7.53 6.99014778 7.53"></polygon>
                </g>
                <path d="M179.5665,34.2722 C179.5665,38.4342 171.7635,41.8082 162.1385,41.8082 C152.5135,41.8082 144.7105,38.4342 144.7105,34.2722 C144.7105,30.1102 152.5135,26.7362 162.1385,26.7362 C171.7635,26.7362 179.5665,30.1102 179.5665,34.2722 Z" id="Stroke-74" stroke="#FEFEFE" stroke-width="2"></path>
                <path d="M179.6385,64.8029 C179.6385,68.9649 171.8035,72.3389 162.1385,72.3389 C152.4735,72.3389 144.6385,68.9649 144.6385,64.8029" id="Stroke-76" stroke="#FEFEFE" stroke-width="2"></path>
                <path d="M144.726,34.1487 L144.726,65.2827" id="Stroke-78" stroke="#FEFEFE" stroke-width="2"></path>
                <path d="M179.5118,34.1487 L179.5118,65.2827" id="Stroke-80" stroke="#FEFEFE" stroke-width="2"></path>
                <path d="M154.4081,57.3708 C154.4081,57.1888 154.4451,56.7398 154.4451,56.5338 C154.4451,55.5878 154.0571,55.2848 153.1111,55.2848 L152.7961,55.2848 L152.7961,53.8778 L153.1111,53.8778 C154.0571,53.8778 154.4451,53.5748 154.4451,52.6288 C154.4451,52.4228 154.4081,51.9738 154.4081,51.7918 C154.4081,50.5548 155.0271,49.7788 157.2461,49.3908 L157.5731,50.6158 C156.2881,50.9798 156.0941,51.3188 156.0941,52.0588 C156.0941,52.3018 156.1311,52.7018 156.1311,52.9568 C156.1311,53.8418 155.6811,54.3148 154.8691,54.5818 C155.6811,54.8488 156.1311,55.3218 156.1311,56.2068 C156.1311,56.4608 156.0941,56.8618 156.0941,57.1038 C156.0941,57.8438 156.2881,58.1838 157.5731,58.5468 L157.2461,59.7718 C155.0271,59.3838 154.4081,58.6078 154.4081,57.3708" id="Fill-82" fill="#FEFEFE" fill-rule="nonzero"></path>
                <polygon id="Fill-84" fill="#FEFEFE" fill-rule="nonzero" points="158.291 58.062 160.256 58.062 160.256 56.122 158.291 56.122"></polygon>
                <polygon id="Fill-86" fill="#FEFEFE" fill-rule="nonzero" points="161.156 58.062 163.12 58.062 163.12 56.122 161.156 56.122"></polygon>
                <polygon id="Fill-87" fill="#FEFEFE" fill-rule="nonzero" points="164.02 58.062 165.985 58.062 165.985 56.122 164.02 56.122"></polygon>
                <path d="M166.7031,58.5471 C167.9891,58.1831 168.1831,57.8441 168.1831,57.1041 C168.1831,56.8611 168.1461,56.4611 168.1461,56.2061 C168.1461,55.3211 168.5951,54.8481 169.4071,54.5811 C168.5951,54.3151 168.1461,53.8421 168.1461,52.9561 C168.1461,52.7021 168.1831,52.3021 168.1831,52.0591 C168.1831,51.3191 167.9891,50.9801 166.7031,50.6161 L167.0311,49.3911 C169.2501,49.7791 169.8681,50.5551 169.8681,51.7921 C169.8681,51.9741 169.8321,52.4231 169.8321,52.6291 C169.8321,53.5751 170.2201,53.8781 171.1661,53.8781 L171.4811,53.8781 L171.4811,55.2851 L171.1661,55.2851 C170.2201,55.2851 169.8321,55.5881 169.8321,56.5341 C169.8321,56.7401 169.8681,57.1891 169.8681,57.3711 C169.8681,58.6081 169.2501,59.3841 167.0311,59.7721 L166.7031,58.5471 Z" id="Fill-88" fill="#FEFEFE" fill-rule="nonzero"></path>
                <g id="Group-8" transform="translate(0.555400, 4.000000)">
                    <polygon id="Fill-52" fill="url(#linearGradient-1)" fill-rule="nonzero" points="0.449 79.263 62.816 79.263 62.816 12.173 0.449 12.173"></polygon>
                    <path d="M63.2313,96.4094 C63.2313,98.7674 61.2833,100.6964 58.9013,100.6964 L4.8303,100.6964 C2.4483,100.6964 0.5003,98.7674 0.5003,96.4094 L0.5003,4.6124 C0.5003,2.2544 2.4483,0.3254 4.8303,0.3254 L58.9013,0.3254 C61.2833,0.3254 63.2313,2.2544 63.2313,4.6124 L63.2313,96.4094 Z" id="Stroke-54" stroke="#010202" stroke-width="4" stroke-linecap="round" stroke-linejoin="round"></path>
                    <path d="M0.7122,79.2628 L62.8162,79.2628" id="Stroke-56" stroke="#010202" stroke-width="3" stroke-linecap="round" stroke-linejoin="round"></path>
                    <path d="M0.8137,12.1733 L62.9177,12.1733" id="Stroke-58" stroke="#010202" stroke-width="3" stroke-linecap="round" stroke-linejoin="round"></path>
                    <path d="M36.8842,89.8666 C36.8842,92.6386 34.6372,94.8856 31.8662,94.8856 C29.0942,94.8856 26.8472,92.6386 26.8472,89.8666 C26.8472,87.0946 29.0942,84.8476 31.8662,84.8476 C34.6372,84.8476 36.8842,87.0946 36.8842,89.8666 Z" id="Stroke-60" stroke="#010202" stroke-width="3"></path>
                    <path d="M27.0885,6.2172 L36.6425,6.2172" id="Stroke-62" stroke="#010202" stroke-width="2" stroke-linecap="round" stroke-linejoin="round"></path>
                    <path d="M20.3236,6.2172 L22.0076,6.2172" id="Stroke-64" stroke="#010202" stroke-width="2" stroke-linecap="round" stroke-linejoin="round"></path>
                    <path d="M44.8302,34.0047 C44.8302,37.0297 39.1602,39.4817 32.1652,39.4817 C25.1702,39.4817 19.5002,37.0297 19.5002,34.0047 C19.5002,30.9797 25.1702,28.5277 32.1652,28.5277 C39.1602,28.5277 44.8302,30.9797 44.8302,34.0047 Z" id="Stroke-98" stroke="#FEFEFE" stroke-width="2"></path>
                    <path d="M44.8825,56.1916 C44.8825,59.2166 39.1885,61.6686 32.1655,61.6686 C25.1415,61.6686 19.4475,59.2166 19.4475,56.1916" id="Stroke-99" stroke="#FEFEFE" stroke-width="2"></path>
                    <path d="M19.5113,33.9149 L19.5113,56.5399" id="Stroke-100" stroke="#FEFEFE" stroke-width="2"></path>
                    <path d="M44.7905,33.9149 L44.7905,56.5399" id="Stroke-101" stroke="#FEFEFE" stroke-width="2"></path>
                    <path d="M26.5474,50.7907 C26.5474,50.6587 26.5744,50.3327 26.5744,50.1827 C26.5744,49.4947 26.2924,49.2747 25.6044,49.2747 L25.3754,49.2747 L25.3754,48.2527 L25.6044,48.2527 C26.2924,48.2527 26.5744,48.0327 26.5744,47.3447 C26.5744,47.1947 26.5474,46.8687 26.5474,46.7367 C26.5474,45.8377 26.9974,45.2737 28.6104,44.9917 L28.8474,45.8817 C27.9134,46.1467 27.7724,46.3927 27.7724,46.9307 C27.7724,47.1067 27.7994,47.3977 27.7994,47.5827 C27.7994,48.2267 27.4724,48.5697 26.8824,48.7637 C27.4724,48.9577 27.7994,49.3017 27.7994,49.9447 C27.7994,50.1297 27.7724,50.4207 27.7724,50.5967 C27.7724,51.1347 27.9134,51.3817 28.8474,51.6457 L28.6104,52.5357 C26.9974,52.2537 26.5474,51.6897 26.5474,50.7907" id="Fill-102" fill="#FEFEFE" fill-rule="nonzero"></path>
                    <polygon id="Fill-103" fill="#FEFEFE" fill-rule="nonzero" points="29.369 51.293 30.797 51.293 30.797 49.883 29.369 49.883"></polygon>
                    <polygon id="Fill-104" fill="#FEFEFE" fill-rule="nonzero" points="31.451 51.293 32.878 51.293 32.878 49.883 31.451 49.883"></polygon>
                    <polygon id="Fill-105" fill="#FEFEFE" fill-rule="nonzero" points="33.533 51.293 34.961 51.293 34.961 49.883 33.533 49.883"></polygon>
                    <path d="M35.4822,51.6455 C36.4162,51.3815 36.5572,51.1345 36.5572,50.5965 C36.5572,50.4205 36.5312,50.1295 36.5312,49.9445 C36.5312,49.3015 36.8572,48.9575 37.4472,48.7635 C36.8572,48.5695 36.5312,48.2265 36.5312,47.5825 C36.5312,47.3975 36.5572,47.1065 36.5572,46.9305 C36.5572,46.3925 36.4162,46.1465 35.4822,45.8815 L35.7202,44.9915 C37.3332,45.2735 37.7822,45.8375 37.7822,46.7365 C37.7822,46.8685 37.7562,47.1945 37.7562,47.3445 C37.7562,48.0325 38.0382,48.2525 38.7252,48.2525 L38.9542,48.2525 L38.9542,49.2745 L38.7252,49.2745 C38.0382,49.2745 37.7562,49.4955 37.7562,50.1825 C37.7562,50.3325 37.7822,50.6585 37.7822,50.7905 C37.7822,51.6895 37.3332,52.2535 35.7202,52.5355 L35.4822,51.6455 Z" id="Fill-106" fill="#FEFEFE" fill-rule="nonzero"></path>
                </g>
                <g id="Group-7" transform="translate(357.622800, 4.000000)">
                    <path d="M8.3338,132.231 L8.3338,83.831 L25.4618,83.831 L25.4618,132.231 C25.4618,136.961 21.6278,140.795 16.8978,140.795 C12.1678,140.795 8.3338,136.961 8.3338,132.231 Z" id="Stroke-26" stroke="#010202" stroke-width="4" stroke-linecap="round" stroke-linejoin="round"></path>
                    <g id="Group-25" transform="translate(1.000000, 52.196000)">
                        <g id="Fill-23-Clipped">
                            <mask id="mask-3" fill="white">
                                <use xlink:href="#path-2"></use>
                            </mask>
                            <g id="path-2"></g>
                            <path d="M2.749,0.542 C1.649,0.542 0.749,1.441 0.749,2.541 L0.749,2.541 L0.749,28.839 C0.749,29.94 1.649,30.84 2.749,30.84 L2.749,30.84 L29.047,30.84 C30.147,30.84 31.047,29.94 31.047,28.839 L31.047,28.839 L31.047,2.541 C31.047,1.441 30.147,0.542 29.047,0.542 L29.047,0.542 L2.749,0.542 Z" id="Fill-23" fill="url(#linearGradient-1)" fill-rule="nonzero" mask="url(#mask-3)"></path>
                        </g>
                    </g>
                    <path d="M20.3234,129.8131 C20.3234,131.7051 18.7894,133.2391 16.8974,133.2391 C15.0054,133.2391 13.4724,131.7051 13.4724,129.8131 C13.4724,127.9211 15.0054,126.3871 16.8974,126.3871 C18.7894,126.3871 20.3234,127.9211 20.3234,129.8131" id="Fill-28" fill="#010202" fill-rule="nonzero"></path>
                    <path d="M29.928,83.9168 L3.868,83.9168 C2.218,83.9168 0.868,82.5668 0.868,80.9168 L0.868,54.8568 C0.868,53.2068 2.218,51.8568 3.868,51.8568 L29.928,51.8568 C31.578,51.8568 32.928,53.2068 32.928,54.8568 L32.928,80.9168 C32.928,82.5668 31.578,83.9168 29.928,83.9168 Z" id="Stroke-30" stroke="#010202" stroke-width="3" stroke-linecap="round" stroke-linejoin="round"></path>
                    <polygon id="Fill-32" fill="#FEFEFE" fill-rule="nonzero" points="8.348 51.466 25.447 51.466 25.447 4.669 8.348 4.669"></polygon>
                    <polygon id="Stroke-34" stroke="#010202" stroke-width="4" stroke-linecap="round" stroke-linejoin="round" points="8.348 51.466 25.447 51.466 25.447 4.669 8.348 4.669"></polygon>
                    <path d="M33.9067,67.2116 L35.2567,67.2116" id="Stroke-35" stroke="#010202" stroke-width="4" stroke-linecap="round" stroke-linejoin="round"></path>
                    <path d="M25.2703,9.1646 L8.5253,9.1646 C6.1663,9.1646 4.2363,7.2346 4.2363,4.8766 C4.2363,2.5176 6.1663,0.5876 8.5253,0.5876 L25.2703,0.5876 C27.6293,0.5876 29.5583,2.5176 29.5583,4.8766 C29.5583,7.2346 27.6293,9.1646 25.2703,9.1646" id="Fill-36" fill="#FEFEFE" fill-rule="nonzero"></path>
                    <path d="M25.2703,9.1646 L8.5253,9.1646 C6.1663,9.1646 4.2363,7.2346 4.2363,4.8766 C4.2363,2.5176 6.1663,0.5876 8.5253,0.5876 L25.2703,0.5876 C27.6293,0.5876 29.5583,2.5176 29.5583,4.8766 C29.5583,7.2346 27.6293,9.1646 25.2703,9.1646 Z" id="Stroke-37" stroke="#010202" stroke-width="2" stroke-linecap="round" stroke-linejoin="round"></path>
                    <path d="M23.026,4.0016 L10.77,4.0016 C10.289,4.0016 9.895,4.3956 9.895,4.8766 C9.895,5.3566 10.289,5.7506 10.77,5.7506 L23.026,5.7506 C23.507,5.7506 23.901,5.3566 23.901,4.8766 C23.901,4.3956 23.507,4.0016 23.026,4.0016" id="Fill-38" fill="#FEFEFE" fill-rule="nonzero"></path>
                    <path d="M23.026,4.0016 L10.77,4.0016 C10.289,4.0016 9.895,4.3956 9.895,4.8766 C9.895,5.3566 10.289,5.7506 10.77,5.7506 L23.026,5.7506 C23.507,5.7506 23.901,5.3566 23.901,4.8766 C23.901,4.3956 23.507,4.0016 23.026,4.0016 Z" id="Stroke-39" stroke="#010202" stroke-width="2" stroke-linecap="round" stroke-linejoin="round"></path>
                    <path d="M23.7268,61.2288 C23.7268,62.9468 20.5068,64.3388 16.5358,64.3388 C12.5638,64.3388 9.3438,62.9468 9.3438,61.2288 C9.3438,59.5108 12.5638,58.1188 16.5358,58.1188 C20.5068,58.1188 23.7268,59.5108 23.7268,61.2288 Z" id="Stroke-107" stroke="#FEFEFE"></path>
                    <path d="M23.7565,73.827 C23.7565,75.545 20.5235,76.937 16.5355,76.937 C12.5475,76.937 9.3145,75.545 9.3145,73.827" id="Stroke-108" stroke="#FEFEFE"></path>
                    <path d="M9.3502,61.1779 L9.3502,74.0249" id="Stroke-109" stroke="#FEFEFE"></path>
                    <path d="M23.7043,61.1779 L23.7043,74.0249" id="Stroke-110" stroke="#FEFEFE"></path>
                    <path d="M13.3455,70.7603 C13.3455,70.6853 13.3605,70.5003 13.3605,70.4153 C13.3605,70.0243 13.2005,69.8993 12.8105,69.8993 L12.6805,69.8993 L12.6805,69.3193 L12.8105,69.3193 C13.2005,69.3193 13.3605,69.1943 13.3605,68.8033 C13.3605,68.7183 13.3455,68.5333 13.3455,68.4583 C13.3455,67.9483 13.6005,67.6273 14.5165,67.4673 L14.6515,67.9733 C14.1215,68.1233 14.0415,68.2633 14.0415,68.5683 C14.0415,68.6683 14.0565,68.8333 14.0565,68.9383 C14.0565,69.3043 13.8715,69.4993 13.5355,69.6093 C13.8715,69.7193 14.0565,69.9143 14.0565,70.2803 C14.0565,70.3853 14.0415,70.5503 14.0415,70.6503 C14.0415,70.9553 14.1215,71.0953 14.6515,71.2453 L14.5165,71.7513 C13.6005,71.5913 13.3455,71.2703 13.3455,70.7603" id="Fill-111" fill="#FEFEFE" fill-rule="nonzero"></path>
                    <polygon id="Fill-112" fill="#FEFEFE" fill-rule="nonzero" points="14.948 71.046 15.759 71.046 15.759 70.245 14.948 70.245"></polygon>
                    <polygon id="Fill-113" fill="#FEFEFE" fill-rule="nonzero" points="16.13 71.046 16.941 71.046 16.941 70.245 16.13 70.245"></polygon>
                    <polygon id="Fill-114" fill="#FEFEFE" fill-rule="nonzero" points="17.312 71.046 18.123 71.046 18.123 70.245 17.312 70.245"></polygon>
                    <path d="M18.4189,71.2457 C18.9499,71.0957 19.0299,70.9557 19.0299,70.6507 C19.0299,70.5497 19.0149,70.3847 19.0149,70.2797 C19.0149,69.9147 19.1999,69.7197 19.5349,69.6097 C19.1999,69.4997 19.0149,69.3037 19.0149,68.9387 C19.0149,68.8337 19.0299,68.6687 19.0299,68.5687 C19.0299,68.2637 18.9499,68.1227 18.4189,67.9727 L18.5539,67.4677 C19.4699,67.6277 19.7249,67.9477 19.7249,68.4587 C19.7249,68.5337 19.7099,68.7187 19.7099,68.8037 C19.7099,69.1937 19.8699,69.3187 20.2609,69.3187 L20.3909,69.3187 L20.3909,69.8997 L20.2609,69.8997 C19.8699,69.8997 19.7099,70.0247 19.7099,70.4147 C19.7099,70.4997 19.7249,70.6857 19.7249,70.7607 C19.7249,71.2707 19.4699,71.5907 18.5539,71.7507 L18.4189,71.2457 Z" id="Fill-115" fill="#FEFEFE" fill-rule="nonzero"></path>
                </g>
            </g>
            <g id="Group-6" transform="translate(197.000000, 111.000000) rotate(-17.000000) translate(-197.000000, -111.000000) translate(166.000000, 81.000000)" fill-rule="nonzero" fill="#00B9BE">
                <path d="M58.8849133,25.5466552 C57.8195467,19.8683793 55.0192133,14.5863103 50.9923133,10.5838966 C46.9530133,6.59286207 41.71608,3.91872414 36.2146133,2.99182759 C33.4690467,2.51182759 30.66458,2.44975862 27.9231467,2.81389655 C25.1848133,3.19768966 22.5188133,3.99734483 20.04088,5.16734483 C15.0757133,7.50010345 10.9031133,11.3463103 8.20611333,16.0118276 L7.25958,17.6483793 L3.95394667,15.6166552 L4.98728,14.0328621 C8.35904667,8.86872414 13.29838,4.83631034 18.9104133,2.56768966 C21.7128133,1.42768966 24.6774467,0.717 27.6720467,0.464586207 C30.6697467,0.230793103 33.6881133,0.466655172 36.58868,1.13906897 C42.4001467,2.44975862 47.73318,5.5832069 51.6743133,9.93113793 C55.60718,14.2925172 58.13058,19.8207931 58.8849133,25.5466552" id="Fill-116" stroke="#00B9BE" stroke-width="0.9"></path>
                <polygon id="Fill-117" points="13.9043267 17.4541034 0.34906 10.8747931 3.84172667 20.9485862"></polygon>
                <path d="M2.72851667,34.3301379 C3.79388333,40.0084138 6.59421667,45.2904828 10.6211167,49.2928966 C14.6604167,53.283931 19.89735,55.958069 25.3988167,56.8849655 C28.1443833,57.3649655 30.94885,57.4270345 33.6902833,57.0628966 C36.4286167,56.6791034 39.0946167,55.8804828 41.57255,54.7094483 C46.5377167,52.3766897 50.7103167,48.5304828 53.4073167,43.8649655 L54.35385,42.2284138 L57.6594833,44.2611724 L56.62615,45.843931 C53.2543833,51.008069 48.31505,55.0404828 42.7030167,57.3091034 C39.9006167,58.4501379 36.9359833,59.1597931 33.9413833,59.4122069 C30.9436833,59.646 27.9253167,59.4101379 25.02475,58.7377241 C19.2132833,57.4270345 13.88025,54.2935862 9.93911667,49.9456552 C6.00625,45.5842759 3.48285,40.056 2.72851667,34.3301379" id="Fill-118" stroke="#00B9BE" stroke-width="0.9"></path>
                <polygon id="Fill-119" points="47.7091033 42.4227931 61.26437 49.0021034 57.7717033 38.9283103"></polygon>
            </g>
            <g id="Group-2" transform="translate(332.000000, 122.000000)">
                <path d="M20.9683111,24.7072824 C20.9683111,26.2028118 19.758,27.4150471 18.2648444,27.4150471 C16.7716889,27.4150471 15.5605556,26.2028118 15.5605556,24.7072824 C15.5605556,23.2117529 16.7716889,21.9995176 18.2648444,21.9995176 C19.758,21.9995176 20.9683111,23.2117529 20.9683111,24.7072824" id="Fill-123" fill="#00ACE0" fill-rule="nonzero"></path>
                <path d="M36.3318622,8.25827059 C31.7076844,3.62674118 25.3206622,0.762505882 18.2643511,0.762505882 C11.2088622,0.762505882 4.82101778,3.62674118 0.19684,8.25827059" id="Stroke-124" stroke="#00ACE0" stroke-width="2.43" stroke-linecap="round" stroke-linejoin="round"></path>
                <path d="M31.19618,13.4021176 C27.8867356,10.0874118 23.3143578,8.03682353 18.2642689,8.03682353 C13.21418,8.03682353 8.64262444,10.0874118 5.33318,13.4021176" id="Stroke-125" stroke="#00ACE0" stroke-width="2.43" stroke-linecap="round" stroke-linejoin="round"></path>
                <path d="M25.6104956,18.9966824 C23.7308956,17.1140941 21.1334956,15.9488 18.2647622,15.9488 C15.3960289,15.9488 12.7986289,17.1140941 10.9190289,18.9966824" id="Stroke-126" stroke="#00ACE0" stroke-width="2.43" stroke-linecap="round" stroke-linejoin="round"></path>
            </g>
            <g id="Group-4" transform="translate(55.000000, 121.000000)">
                <path d="M21.5420578,24.7072824 C21.5420578,26.2028118 20.3317467,27.4150471 18.8385911,27.4150471 C17.3454356,27.4150471 16.1343022,26.2028118 16.1343022,24.7072824 C16.1343022,23.2117529 17.3454356,21.9995176 18.8385911,21.9995176 C20.3317467,21.9995176 21.5420578,23.2117529 21.5420578,24.7072824" id="Fill-127" fill="#00ACE0" fill-rule="nonzero"></path>
                <path d="M36.9056911,8.25827059 C32.2815133,3.62674118 25.8944911,0.762505882 18.83818,0.762505882 C11.7826911,0.762505882 5.39484667,3.62674118 0.770668889,8.25827059" id="Stroke-128" stroke="#00ACE0" stroke-width="2.43" stroke-linecap="round" stroke-linejoin="round"></path>
                <path d="M31.7700089,13.4021176 C28.4605644,10.0874118 23.8881867,8.03682353 18.8380978,8.03682353 C13.7880089,8.03682353 9.21645333,10.0874118 5.90700889,13.4021176" id="Stroke-129" stroke="#00ACE0" stroke-width="2.43" stroke-linecap="round" stroke-linejoin="round"></path>
                <path d="M26.1842422,18.9966824 C24.3046422,17.1140941 21.7072422,15.9488 18.8385089,15.9488 C15.9697756,15.9488 13.3723756,17.1140941 11.4927756,18.9966824" id="Stroke-130" stroke="#00ACE0" stroke-width="2.43" stroke-linecap="round" stroke-linejoin="round"></path>
            </g>
            <g id="Group-10" transform="translate(108.000000, 0.000000)">
                <g id="Group-9" transform="translate(115.969697, 17.025974)">
                    <path d="M54.7684272,18.4612812 C58.765578,18.724585 61.9361457,22.5173657 61.9361457,27.1596864 C61.9361457,31.972518 58.5282828,35.7673087 54.3245594,35.7673087 L53.0482566,35.7673087 L10.535847,35.7495541 C10.0024449,35.7495541 9.48191701,35.6822207 8.97953007,35.5565986 C4.01886141,34.5429125 0.251690881,29.5823493 0.251690881,23.6111149 C0.251690881,16.9072528 4.99847204,11.4726758 10.8538986,11.4726758 C10.8623838,11.4726758 11.5186762,11.4730108 12.581384,11.4730108 C14.6734437,6.88998374 18.8622448,3.75981745 23.6918305,3.75981745 C26.6777704,3.75981745 29.4185149,4.95741425 31.5714346,6.95363224 C33.8431481,2.87409831 37.8274247,0.167362059 42.3667555,0.167362059 C49.4361619,0.167362059 55.16665,6.72851754 55.16665,14.8219269 C55.16665,16.0784823 55.0282522,17.2975186 54.7684272,18.4612812 Z" id="Fill-1" fill="#FEFEFE" fill-rule="nonzero"></path>
                    <path d="M54.7684272,18.4612812 C55.0282522,17.2975186 55.16665,16.0784823 55.16665,14.8219269 C55.16665,6.72851754 49.4361619,0.167362059 42.3667555,0.167362059 C37.8274247,0.167362059 33.8431481,2.87409831 31.5714346,6.95363224 C29.4185149,4.95741425 26.6777704,3.75981745 23.6918305,3.75981745 C18.8622448,3.75981745 14.6734437,6.88998374 12.581384,11.4730108 C11.5186762,11.4730108 10.8623838,11.4726758 10.8538986,11.4726758 C4.99847204,11.4726758 0.251690881,16.9072528 0.251690881,23.6111149 C0.251690881,29.5823493 4.01886141,34.5429125 8.97953007,35.5565986 C9.48191701,35.6822207 10.0024449,35.7495541 10.535847,35.7495541 L53.0482566,35.7673087 L54.3245594,35.7673087 C58.5282828,35.7673087 61.9361457,31.972518 61.9361457,27.1596864 C61.9361457,22.5173657 58.765578,18.724585 54.7684272,18.4612812 Z" id="Stroke-3" stroke="#00B9BE" stroke-width="3.2805" stroke-linecap="round" stroke-linejoin="round"></path>
                    <path d="M12.5812962,11.4730778 C13.5445215,11.5873101 14.2092991,11.844919 14.963611,12.1939808" id="Stroke-120" stroke="#00B9BE" stroke-width="3.2805" stroke-linecap="round" stroke-linejoin="round"></path>
                    <path d="M52.5888228,18.7492739 C53.3091935,18.5462687 54.068187,18.4621857 54.8476621,18.5157844" id="Stroke-121" stroke="#00B9BE" stroke-width="3.2805" stroke-linecap="round" stroke-linejoin="round"></path>
                    <path d="M31.4831584,6.85454157 C32.1991403,7.48935162 32.8542622,8.20958466 33.4368204,9.00217599" id="Stroke-122" stroke="#00B9BE" stroke-width="3.2805" stroke-linecap="round" stroke-linejoin="round"></path>
                </g>
                <g id="Group-9" transform="translate(0.000000, 11.649351)">
                    <path d="M54.7684272,18.4612812 C58.765578,18.724585 61.9361457,22.5173657 61.9361457,27.1596864 C61.9361457,31.972518 58.5282828,35.7673087 54.3245594,35.7673087 L53.0482566,35.7673087 L10.535847,35.7495541 C10.0024449,35.7495541 9.48191701,35.6822207 8.97953007,35.5565986 C4.01886141,34.5429125 0.251690881,29.5823493 0.251690881,23.6111149 C0.251690881,16.9072528 4.99847204,11.4726758 10.8538986,11.4726758 C10.8623838,11.4726758 11.5186762,11.4730108 12.581384,11.4730108 C14.6734437,6.88998374 18.8622448,3.75981745 23.6918305,3.75981745 C26.6777704,3.75981745 29.4185149,4.95741425 31.5714346,6.95363224 C33.8431481,2.87409831 37.8274247,0.167362059 42.3667555,0.167362059 C49.4361619,0.167362059 55.16665,6.72851754 55.16665,14.8219269 C55.16665,16.0784823 55.0282522,17.2975186 54.7684272,18.4612812 Z" id="Fill-1" fill="#FEFEFE" fill-rule="nonzero"></path>
                    <path d="M54.7684272,18.4612812 C55.0282522,17.2975186 55.16665,16.0784823 55.16665,14.8219269 C55.16665,6.72851754 49.4361619,0.167362059 42.3667555,0.167362059 C37.8274247,0.167362059 33.8431481,2.87409831 31.5714346,6.95363224 C29.4185149,4.95741425 26.6777704,3.75981745 23.6918305,3.75981745 C18.8622448,3.75981745 14.6734437,6.88998374 12.581384,11.4730108 C11.5186762,11.4730108 10.8623838,11.4726758 10.8538986,11.4726758 C4.99847204,11.4726758 0.251690881,16.9072528 0.251690881,23.6111149 C0.251690881,29.5823493 4.01886141,34.5429125 8.97953007,35.5565986 C9.48191701,35.6822207 10.0024449,35.7495541 10.535847,35.7495541 L53.0482566,35.7673087 L54.3245594,35.7673087 C58.5282828,35.7673087 61.9361457,31.972518 61.9361457,27.1596864 C61.9361457,22.5173657 58.765578,18.724585 54.7684272,18.4612812 Z" id="Stroke-3" stroke="#00B9BE" stroke-width="3.2805" stroke-linecap="round" stroke-linejoin="round"></path>
                    <path d="M12.5812962,11.4730778 C13.5445215,11.5873101 14.2092991,11.844919 14.963611,12.1939808" id="Stroke-120" stroke="#00B9BE" stroke-width="3.2805" stroke-linecap="round" stroke-linejoin="round"></path>
                    <path d="M52.5888228,18.7492739 C53.3091935,18.5462687 54.068187,18.4621857 54.8476621,18.5157844" id="Stroke-121" stroke="#00B9BE" stroke-width="3.2805" stroke-linecap="round" stroke-linejoin="round"></path>
                    <path d="M31.4831584,6.85454157 C32.1991403,7.48935162 32.8542622,8.20958466 33.4368204,9.00217599" id="Stroke-122" stroke="#00B9BE" stroke-width="3.2805" stroke-linecap="round" stroke-linejoin="round"></path>
                </g>
                <g id="Group-9" transform="translate(19.777778, 0.000000)">
                    <path d="M123.030525,35.5379664 C132.009632,36.0448262 139.131922,43.345929 139.131922,52.2823963 C139.131922,61.5470972 131.476577,68.8520692 122.03343,68.8520692 L119.166374,68.8520692 L23.6674823,68.8178916 C22.4692602,68.8178916 21.2999585,68.6882748 20.1714081,68.4464523 C9.02787707,66.4951065 0.565392558,56.9460224 0.565392558,45.4513963 C0.565392558,32.5464617 11.2284517,22.0849009 24.3819461,22.0849009 C24.4010072,22.0849009 25.875287,22.0855458 28.2625293,22.0855458 C32.9620838,13.2632187 42.3717093,7.2376486 53.2207787,7.2376486 C59.9283247,7.2376486 66.0850698,9.54302243 70.9213386,13.3857421 C76.0244632,5.53263925 84.9746498,0.322171963 95.1716971,0.322171963 C111.052248,0.322171963 123.925083,12.9523963 123.925083,28.5322093 C123.925083,30.9510785 123.61419,33.2977234 123.030525,35.5379664 Z" id="Fill-1" fill="#FEFEFE" fill-rule="nonzero"></path>
                    <path d="M123.030525,35.5379664 C123.61419,33.2977234 123.925083,30.9510785 123.925083,28.5322093 C123.925083,12.9523963 111.052248,0.322171963 95.1716971,0.322171963 C84.9746498,0.322171963 76.0244632,5.53263925 70.9213386,13.3857421 C66.0850698,9.54302243 59.9283247,7.2376486 53.2207787,7.2376486 C42.3717093,7.2376486 32.9620838,13.2632187 28.2625293,22.0855458 C25.875287,22.0855458 24.4010072,22.0849009 24.3819461,22.0849009 C11.2284517,22.0849009 0.565392558,32.5464617 0.565392558,45.4513963 C0.565392558,56.9460224 9.02787707,66.4951065 20.1714081,68.4464523 C21.2999585,68.6882748 22.4692602,68.8178916 23.6674823,68.8178916 L119.166374,68.8520692 L122.03343,68.8520692 C131.476577,68.8520692 139.131922,61.5470972 139.131922,52.2823963 C139.131922,43.345929 132.009632,36.0448262 123.030525,35.5379664 Z" id="Stroke-3" stroke="#00B9BE" stroke-width="3.2805" stroke-linecap="round" stroke-linejoin="round"></path>
                    <path d="M28.2623321,22.0856748 C30.426099,22.305572 31.9194399,22.8014692 33.6139087,23.4734131" id="Stroke-120" stroke="#00B9BE" stroke-width="3.2805" stroke-linecap="round" stroke-linejoin="round"></path>
                    <path d="M118.134312,36.0923523 C119.752536,35.7015673 121.457521,35.5397075 123.208516,35.642885" id="Stroke-121" stroke="#00B9BE" stroke-width="3.2805" stroke-linecap="round" stroke-linejoin="round"></path>
                    <path d="M70.7230371,13.1949925 C72.3314021,14.4170019 73.8030528,15.8034505 75.111698,17.3291888" id="Stroke-122" stroke="#00B9BE" stroke-width="3.2805" stroke-linecap="round" stroke-linejoin="round"></path>
                    <g id="Group-13" transform="translate(63.000000, 27.000000)">
                        <path d="M20.8448001,5.15254498 C20.8448001,7.58304965 16.2260219,9.55351694 10.5291309,9.55351694 C4.83223994,9.55351694 0.21346173,7.58304965 0.21346173,5.15254498 C0.21346173,2.72204031 4.83223994,0.750787972 10.5291309,0.750787972 C16.2260219,0.750787972 20.8448001,2.72204031 20.8448001,5.15254498 Z" id="Stroke-66" stroke="#00B9BE" stroke-width="1.57464"></path>
                        <path d="M20.8873676,22.9827618 C20.8873676,25.4132665 16.2494937,27.3837338 10.5287331,27.3837338 C4.80797246,27.3837338 0.17089418,25.4132665 0.17089418,22.9827618" id="Stroke-68" stroke="#00B9BE" stroke-width="1.57464"></path>
                        <path d="M0.22261177,5.08039919 L0.22261177,23.2628665" id="Stroke-70" stroke="#00B9BE" stroke-width="1.57464"></path>
                        <path d="M20.9008142,5.08039919 L20.9008142,23.2628665" id="Stroke-72" stroke="#00B9BE" stroke-width="1.57464"></path>
                        <path d="M5.7596556,19.5733824 C5.7596556,19.4650459 5.78193394,19.1965599 5.78193394,19.0725226 C5.78193394,18.5072889 5.54642002,18.3259431 4.9735483,18.3259431 L4.78259106,18.3259431 L4.78259106,17.484373 L4.9735483,17.484373 C5.54642002,17.484373 5.78193394,17.3030272 5.78193394,16.7377936 C5.78193394,16.6145412 5.7596556,16.3460553 5.7596556,16.2369338 C5.7596556,15.4974197 6.13440918,15.0334571 7.47986206,14.8010833 L7.67798019,15.5335319 C6.89903379,15.7509898 6.78127683,15.9543169 6.78127683,16.3970833 C6.78127683,16.5415319 6.80355517,16.7809711 6.80355517,16.9332702 C6.80355517,17.4631768 6.53144111,17.7457936 6.03893056,17.9051581 C6.53144111,18.0645226 6.80355517,18.3479244 6.80355517,18.8770459 C6.80355517,19.029345 6.78127683,19.2687842 6.78127683,19.4140179 C6.78127683,19.8559992 6.89903379,20.0593263 7.67798019,20.2767842 L7.47986206,21.0092328 C6.13440918,20.777644 5.7596556,20.3128964 5.7596556,19.5733824" id="Fill-131" fill="#00B9BE" fill-rule="nonzero"></path>
                        <polygon id="Fill-132" fill="#00B9BE" fill-rule="nonzero" points="8.1133627 19.9867095 9.3044585 19.9867095 9.3044585 18.8264104 8.1133627 18.8264104"></polygon>
                        <polygon id="Fill-133" fill="#00B9BE" fill-rule="nonzero" points="9.8494823 19.9867095 11.0397824 19.9867095 11.0397824 18.8264104 9.8494823 18.8264104"></polygon>
                        <polygon id="Fill-134" fill="#00B9BE" fill-rule="nonzero" points="11.5863975 19.9867095 12.7774933 19.9867095 12.7774933 18.8264104 11.5863975 18.8264104"></polygon>
                        <path d="M13.2121597,20.2768627 C13.9919017,20.0594048 14.108863,19.8560777 14.108863,19.4140964 C14.108863,19.2688627 14.0865847,19.0294235 14.0865847,18.8771244 C14.0865847,18.3480029 14.3594944,18.0646011 14.8512093,17.9052366 C14.3594944,17.7458721 14.0865847,17.4624702 14.0865847,16.9333487 C14.0865847,16.7810497 14.108863,16.5416104 14.108863,16.3963768 C14.108863,15.9543954 13.9919017,15.7510683 13.2121597,15.5336104 L13.4110735,14.8011618 C14.7557307,15.0327506 15.1304843,15.4974983 15.1304843,16.2370123 C15.1304843,16.3461338 15.1090016,16.6138347 15.1090016,16.7378721 C15.1090016,17.3031057 15.3437198,17.4844515 15.9173872,17.4844515 L16.1083445,17.4844515 L16.1083445,18.3260216 L15.9173872,18.3260216 C15.3437198,18.3260216 15.1090016,18.5073674 15.1090016,19.0726011 C15.1090016,19.1958534 15.1304843,19.4643394 15.1304843,19.5734609 C15.1304843,20.3129749 14.7557307,20.7777226 13.4110735,21.0093113 L13.2121597,20.2768627 Z" id="Fill-135" fill="#00B9BE" fill-rule="nonzero"></path>
                    </g>
                </g>
            </g>
        </g>
    </g>
</svg>