<?xml version="1.0" encoding="UTF-8" standalone="no"?>
<svg
   width="476px"
   height="284px"
   viewBox="0 0 476 284"
   version="1.1"
   id="svg332"
   sodipodi:docname="get-the-agility-of-sql-and-the-flexibility-of-json.svg"
   inkscape:version="1.2.2 (732a01da63, 2022-12-09)"
   xmlns:inkscape="http://www.inkscape.org/namespaces/inkscape"
   xmlns:sodipodi="http://sodipodi.sourceforge.net/DTD/sodipodi-0.dtd"
   xmlns="http://www.w3.org/2000/svg"
   xmlns:svg="http://www.w3.org/2000/svg"
   xmlns:rdf="http://www.w3.org/1999/02/22-rdf-syntax-ns#"
   xmlns:cc="http://creativecommons.org/ns#"
   xmlns:dc="http://purl.org/dc/elements/1.1/">
  <sodipodi:namedview
     id="namedview334"
     pagecolor="#ffffff"
     bordercolor="#000000"
     borderopacity="0.25"
     inkscape:showpageshadow="2"
     inkscape:pageopacity="0.0"
     inkscape:pagecheckerboard="0"
     inkscape:deskcolor="#d1d1d1"
     showgrid="false"
     inkscape:zoom="2.5106977"
     inkscape:cx="187.7964"
     inkscape:cy="110.72619"
     inkscape:window-width="2312"
     inkscape:window-height="1304"
     inkscape:window-x="328"
     inkscape:window-y="204"
     inkscape:window-maximized="0"
     inkscape:current-layer="svg332" />
  <!-- Generator: Sketch 49.3 (51167) - http://www.bohemiancoding.com/sketch -->
  <title
     id="title169">Get the agility of SQL and the flexibility of JSON</title>
  <desc
     id="desc171">Created with Sketch.</desc>
  <defs
     id="defs183">
    <linearGradient
       x1="116.53336"
       y1="4.8941994"
       x2="116.53336"
       y2="180.06087"
       id="linearGradient-1"
       gradientTransform="scale(1.2440038,0.80385607)"
       gradientUnits="userSpaceOnUse">
      <stop
         stop-color="#F1EFEF"
         offset="0%"
         id="stop173" />
      <stop
         stop-color="#DEDADA"
         offset="100%"
         id="stop175" />
    </linearGradient>
    <linearGradient
       x1="72.775534"
       y1="37.161269"
       x2="72.775534"
       y2="181.61631"
       id="linearGradient-2"
       gradientTransform="scale(1.4294792,0.69955546)"
       gradientUnits="userSpaceOnUse">
      <stop
         stop-color="#FC9C0C"
         offset="0%"
         id="stop178" />
      <stop
         stop-color="#EB4971"
         offset="100%"
         id="stop180" />
    </linearGradient>
  </defs>
  <g
     id="Group-12"
     opacity="0.9"
     transform="translate(393,146)"
     style="fill:none;fill-rule:evenodd;stroke:none;stroke-width:1">
    <path
       d="m 82.762604,41.896367 c 0,23.138678 -18.526807,41.896366 -41.38068,41.896366 C 18.526807,83.792733 0,65.035045 0,41.896367 0,18.757688 18.526807,0 41.381924,0 c 22.853873,0 41.38068,18.757688 41.38068,41.896367 z"
       id="Stroke-130"
       fill="#00ace0" />
    <path
       d="m 52.151778,33.861447 c 0,9.825685 -7.867991,17.791608 -17.572882,17.791608 -9.70489,0 -17.572882,-7.965923 -17.572882,-17.791608 0,-9.825685 7.867992,-17.791608 17.572882,-17.791608 9.704891,0 17.572882,7.965923 17.572882,17.791608 z"
       id="Stroke-122"
       stroke="#ffffff"
       stroke-width="3.27654"
       stroke-linecap="round"
       stroke-linejoin="round" />
    <path
       d="m 21.540952,33.287524 c 0,-6.972872 5.583928,-12.626302 12.471077,-12.626302"
       id="Stroke-124"
       stroke="#ffffff"
       stroke-width="2.4574"
       stroke-linecap="round"
       stroke-linejoin="round" />
    <path
       d="m 53.285512,53.948746 7.93614,8.03492"
       id="Stroke-126"
       stroke="#ffffff"
       stroke-width="4.95577"
       stroke-linecap="round"
       stroke-linejoin="round" />
    <path
       d="m 46.483106,47.061672 6.802406,6.887074"
       id="Stroke-128"
       stroke="#ffffff"
       stroke-width="2.70315" />
  </g>
  <g
     id="Group-13"
     transform="translate(95.87941,43.747748)"
     style="fill:none;fill-rule:evenodd;stroke:none;stroke-width:1">
    <path
       d="M 285.0824,184.67407 H 4.8498438 c -5.55730101,0 -5.19994176,-1.09636 -4.33753908,-2.42132 L 37.169888,146.37824 c 0.588002,-0.90251 2.50972,-1.63402 4.03579,-1.63402 H 248.72656 c 1.5279,0 3.4487,0.73151 4.03579,1.63402 l 36.65759,35.87451 c 0.8624,1.32496 1.21976,2.42132 -4.33754,2.42132 z"
       id="Fill-24"
       fill="#ffffff" />
    <path
       d="M 285.0824,184.67407 H 4.8498438 c -5.55730101,0 -5.19994176,-1.09636 -4.33753908,-2.42132 L 37.169888,146.37824 c 0.588002,-0.90251 2.50972,-1.63402 4.03579,-1.63402 H 248.72656 c 1.5279,0 3.4487,0.73151 4.03579,1.63402 l 36.65759,35.87451 c 0.8624,1.32496 1.21976,2.42132 -4.33754,2.42132 z"
       id="Stroke-26"
       stroke="#000000"
       stroke-width="5.3899"
       stroke-linecap="round"
       stroke-linejoin="round" />
    <path
       d="M 88.84431,179.80006 H 198.99574"
       id="Stroke-28"
       stroke="#000000"
       stroke-width="4.23492"
       stroke-linecap="round"
       stroke-linejoin="round" />
    <path
       d="m 253.92195,12.216833 c 0,-4.5555219 -3.77142,-8.2826011 -8.38153,-8.2826011 H 44.394562 c -4.609205,0 -8.380621,3.7270792 -8.380621,8.2826011 V 136.46043 c 0,4.55552 3.771416,8.2826 8.380621,8.2826 H 245.54042 c 4.61011,0 8.38153,-3.72708 8.38153,-8.2826 z"
       id="Fill-30"
       fill="url(#linearGradient-1)"
       style="fill:url(#linearGradient-1)" />
    <path
       d="m 253.92195,8.8952469 c 0,-4.5555222 -3.77142,-8.2826014 -8.38153,-8.2826014 H 44.394562 c -4.609205,0 -8.380621,3.7270792 -8.380621,8.2826014 V 133.13884 c 0,4.55552 -0.392731,8.2826 4.216474,8.2826 H 250.81712 c 4.61011,0 3.10483,-3.72708 3.10483,-8.2826 z"
       id="Stroke-32"
       stroke="#000000"
       stroke-width="4.61992"
       stroke-linecap="round"
       stroke-linejoin="round" />
    <path
       d="M 42.4929,151.13218 H 54.744306"
       id="Stroke-34"
       stroke="#000000"
       stroke-width="3.07994"
       opacity="0.8"
       stroke-linecap="round"
       stroke-linejoin="round" />
    <path
       d="M 64.158079,151.13218 H 76.409484"
       id="Stroke-36"
       stroke="#000000"
       stroke-width="3.07994"
       opacity="0.8"
       stroke-linecap="round"
       stroke-linejoin="round" />
    <path
       d="M 85.823348,151.13218 H 98.074753"
       id="Stroke-38"
       stroke="#000000"
       stroke-width="3.07994"
       opacity="0.8"
       stroke-linecap="round"
       stroke-linejoin="round" />
    <path
       d="m 107.48862,151.13218 h 12.2514"
       id="Stroke-40"
       stroke="#000000"
       stroke-width="3.07994"
       opacity="0.8"
       stroke-linecap="round"
       stroke-linejoin="round" />
    <path
       d="M 129.15379,151.13218 H 141.4052"
       id="Stroke-42"
       stroke="#000000"
       stroke-width="3.07994"
       opacity="0.8"
       stroke-linecap="round"
       stroke-linejoin="round" />
    <path
       d="m 150.81906,151.13218 h 12.25141"
       id="Stroke-44"
       stroke="#000000"
       stroke-width="3.07994"
       opacity="0.8"
       stroke-linecap="round"
       stroke-linejoin="round" />
    <path
       d="m 172.48433,151.13218 h 12.25141"
       id="Stroke-46"
       stroke="#000000"
       stroke-width="3.07994"
       opacity="0.8"
       stroke-linecap="round"
       stroke-linejoin="round" />
    <path
       d="m 194.14951,151.13218 h 12.25141"
       id="Stroke-48"
       stroke="#000000"
       stroke-width="3.07994"
       opacity="0.8"
       stroke-linecap="round"
       stroke-linejoin="round" />
    <path
       d="m 215.81478,151.13218 h 12.25141"
       id="Stroke-50"
       stroke="#000000"
       stroke-width="3.07994"
       opacity="0.8"
       stroke-linecap="round"
       stroke-linejoin="round" />
    <path
       d="m 236.4324,151.13218 h 12.25141"
       id="Stroke-52"
       stroke="#000000"
       stroke-width="3.07994"
       opacity="0.8"
       stroke-linecap="round"
       stroke-linejoin="round" />
    <path
       d="M 35.488659,158.60575 H 48.060047"
       id="Stroke-58"
       stroke="#000000"
       stroke-width="3.07994"
       opacity="0.8"
       stroke-linecap="round"
       stroke-linejoin="round" />
    <path
       d="M 27.107491,166.07932 H 40.726342"
       id="Stroke-59"
       stroke="#000000"
       stroke-width="3.07994"
       opacity="0.8"
       stroke-linecap="round"
       stroke-linejoin="round" />
    <path
       d="M 47.652822,166.07932 H 61.271673"
       id="Stroke-60"
       stroke="#000000"
       stroke-width="3.07994"
       opacity="0.8"
       stroke-linecap="round"
       stroke-linejoin="round" />
    <path
       d="M 68.198152,166.07932 H 81.817004"
       id="Stroke-61"
       stroke="#000000"
       stroke-width="3.07994"
       opacity="0.8"
       stroke-linecap="round"
       stroke-linejoin="round" />
    <path
       d="M 88.743483,166.07932 H 102.36234"
       id="Stroke-62"
       stroke="#000000"
       stroke-width="3.07994"
       opacity="0.8"
       stroke-linecap="round"
       stroke-linejoin="round" />
    <path
       d="m 109.28872,166.07932 h 13.61885"
       id="Stroke-63"
       stroke="#000000"
       stroke-width="3.07994"
       opacity="0.8"
       stroke-linecap="round"
       stroke-linejoin="round" />
    <path
       d="m 129.83405,166.07932 h 13.61886"
       id="Stroke-64"
       stroke="#000000"
       stroke-width="3.07994"
       opacity="0.8"
       stroke-linecap="round"
       stroke-linejoin="round" />
    <path
       d="m 150.37939,166.07932 h 13.61885"
       id="Stroke-65"
       stroke="#000000"
       stroke-width="3.07994"
       opacity="0.8"
       stroke-linecap="round"
       stroke-linejoin="round" />
    <path
       d="m 170.92472,166.07932 h 13.61885"
       id="Stroke-66"
       stroke="#000000"
       stroke-width="3.07994"
       opacity="0.8"
       stroke-linecap="round"
       stroke-linejoin="round" />
    <path
       d="M 191.47005,166.07932 H 205.0889"
       id="Stroke-67"
       stroke="#000000"
       stroke-width="3.07994"
       opacity="0.8"
       stroke-linecap="round"
       stroke-linejoin="round" />
    <path
       d="m 212.01538,166.07932 h 13.61885"
       id="Stroke-68"
       stroke="#000000"
       stroke-width="3.07994"
       opacity="0.8"
       stroke-linecap="round"
       stroke-linejoin="round" />
    <path
       d="m 234.32809,166.07932 h 30.06922"
       id="Stroke-69"
       stroke="#000000"
       stroke-width="3.07994"
       opacity="0.8"
       stroke-linecap="round"
       stroke-linejoin="round" />
    <path
       d="M 55.347167,158.60575 H 67.918555"
       id="Stroke-70"
       stroke="#000000"
       stroke-width="3.07994"
       opacity="0.8"
       stroke-linecap="round"
       stroke-linejoin="round" />
    <path
       d="M 75.205676,158.60575 H 87.777063"
       id="Stroke-71"
       stroke="#000000"
       stroke-width="3.07994"
       opacity="0.8"
       stroke-linecap="round"
       stroke-linejoin="round" />
    <path
       d="M 95.064184,158.60575 H 107.63557"
       id="Stroke-72"
       stroke="#000000"
       stroke-width="3.07994"
       opacity="0.8"
       stroke-linecap="round"
       stroke-linejoin="round" />
    <path
       d="m 114.92269,158.60575 h 12.57139"
       id="Stroke-73"
       stroke="#000000"
       stroke-width="3.07994"
       opacity="0.8"
       stroke-linecap="round"
       stroke-linejoin="round" />
    <path
       d="m 134.78129,158.60575 h 12.57139"
       id="Stroke-74"
       stroke="#000000"
       stroke-width="3.07994"
       opacity="0.8"
       stroke-linecap="round"
       stroke-linejoin="round" />
    <path
       d="m 154.6398,158.60575 h 12.57139"
       id="Stroke-75"
       stroke="#000000"
       stroke-width="3.07994"
       opacity="0.8"
       stroke-linecap="round"
       stroke-linejoin="round" />
    <path
       d="M 174.49831,158.60575 H 187.0697"
       id="Stroke-76"
       stroke="#000000"
       stroke-width="3.07994"
       opacity="0.8"
       stroke-linecap="round"
       stroke-linejoin="round" />
    <path
       d="M 214.21542,158.60575 H 226.7868"
       id="Stroke-77"
       stroke="#000000"
       stroke-width="3.07994"
       opacity="0.8"
       stroke-linecap="round"
       stroke-linejoin="round" />
    <path
       d="M 194.35682,158.60575 H 206.9282"
       id="Stroke-78"
       stroke="#000000"
       stroke-width="3.07994"
       opacity="0.8"
       stroke-linecap="round"
       stroke-linejoin="round" />
    <path
       d="m 235.33535,158.60575 h 21.72872"
       id="Stroke-79"
       stroke="#000000"
       stroke-width="3.07994"
       opacity="0.8"
       stroke-linecap="round"
       stroke-linejoin="round" />
    <g
       id="Group-3"
       transform="translate(40.624143,7.473569)">
      <path
         d="M 207.27885,27.889091 H 0.7833738 V 3.5596484 c 0,-1.7205363 1.3711438,-3.11503251 3.0628677,-3.11503251 H 204.21599 c 1.69172,0 3.06286,1.39449621 3.06286,3.11503251 z"
         id="Fill-80"
         fill="#ffffff" />
      <polygon
         id="Fill-81"
         fill="#00ace0"
         opacity="0.1"
         points="0.7833738,25.996368 207.27885,25.996368 207.27885,12.747312 0.7833738,12.747312 " />
      <path
         d="m 3.8462415,127.05068 c -1.6917239,0 -3.0628677,-1.51406 -3.0628677,-3.38212 V 25.996368 H 207.27885 v 97.672192 c 0,1.86806 -1.37114,3.38212 -3.06286,3.38212 z"
         id="Fill-82"
         fill="url(#linearGradient-2)"
         style="fill:url(#linearGradient-2)" />
      <polygon
         id="Fill-83"
         fill="#fc9c0c"
         points="9.1548122,26.94273 83.567598,26.94273 83.567598,16.532756 9.1548122,16.532756 " />
      <path
         d="m 11.015132,6.5959637 c 0,1.3064974 -1.0410426,2.365903 -2.3248939,2.365903 -1.2848629,0 -2.3259054,-1.0594056 -2.3259054,-2.365903 0,-1.3064973 1.0410425,-2.365903 2.3259054,-2.365903 1.2838513,0 2.3248939,1.0594057 2.3248939,2.365903"
         id="Fill-84"
         fill="#ea2328" />
      <path
         d="m 18.45641,6.5959637 c 0,1.3064974 -1.041042,2.365903 -2.324893,2.365903 -1.284863,0 -2.325906,-1.0594056 -2.325906,-2.365903 0,-1.3064973 1.041043,-2.365903 2.325906,-2.365903 1.283851,0 2.324893,1.0594057 2.324893,2.365903"
         id="Fill-85"
         fill="#efcd0f" />
      <path
         d="m 24.967529,6.5959637 c 0,1.3064974 -1.041042,2.365903 -2.324894,2.365903 -1.284863,0 -2.325905,-1.0594056 -2.325905,-2.365903 0,-1.3064973 1.041042,-2.365903 2.325905,-2.365903 1.283852,0 2.324894,1.0594057 2.324894,2.365903"
         id="Fill-86"
         fill="#00b9be" />
      <g
         id="Group"
         transform="translate(16.05839,22.345054)"
         fill="#ffffff">
        <path
           d="m 2.8501016,14.076518 c 0,-0.302844 0.041139,-1.114362 0.041139,-1.459159 0,-1.579771 -0.6170886,-2.228723 -2.31839528,-2.228723 H 0.03936246 V 8.5230637 h 0.53348306 c 1.70130668,0 2.31839528,-0.668617 2.31839528,-2.2496996 0,-0.3447965 -0.041139,-1.155003 -0.041139,-1.4591582 0,-2.0661576 0.9223152,-3.3640612 4.6566966,-4.03398918 L 7.9380967,2.4019407 c -2.4617191,0.669928 -2.790833,1.2979035 -2.790833,2.776727 0,0.4064142 0.041139,1.0737202 0.041139,1.5011107 0,1.5810825 -0.7789914,2.3493366 -2.1339322,2.775416 1.3748469,0.4457447 2.1339322,1.1956446 2.1339322,2.7767266 0,0.42608 -0.041139,1.094697 -0.041139,1.501111 0,1.478824 0.3291139,2.106799 2.790833,2.776727 L 7.5067982,18.130172 C 3.7724168,17.461555 2.8501016,16.163652 2.8501016,14.076518"
           id="Fill-87" />
        <path
           d="m 12.451659,13.658155 1.386551,-1.696024 c 1.254441,1.11738 2.529486,1.754637 4.141472,1.754637 1.422912,0 2.32223,-0.694622 2.32223,-1.697272 v -0.03866 c 0,-0.963991 -0.523592,-1.484022 -2.959752,-2.0614183 -2.792494,-0.6946217 -4.365696,-1.543881 -4.365696,-4.030552 v -0.038659 c 0,-2.3133274 1.873783,-3.9133269 4.478414,-3.9133269 1.910143,0 3.428804,0.5973498 4.759602,1.6960244 l -1.237472,1.793297 C 19.7965,4.5195764 18.615993,4.0382047 17.417305,4.0382047 c -1.35019,0 -2.136791,0.7133279 -2.136791,1.5999995 v 0.038659 c 0,1.0413091 0.59995,1.5039746 3.129435,2.1200305 2.773102,0.6946218 4.197225,1.7159776 4.197225,3.9532333 v 0.03866 c 0,2.52533 -1.929535,4.028058 -4.684457,4.028058 -2.004681,0 -3.896644,-0.712081 -5.471058,-2.15869"
           id="Fill-88" />
        <path
           d="m 34.52383,12.881853 -2.395761,-1.950128 1.564735,-1.7039128 2.435457,2.1203968 c 0.434079,-0.720273 0.672247,-1.571617 0.672247,-2.5185072 v -0.037974 c 0,-2.5760802 -1.960401,-4.7148515 -4.710853,-4.7148515 -2.751733,0 -4.67244,2.1020226 -4.67244,4.6768779 v 0.037974 c 0,2.5748558 1.960402,4.6964768 4.710854,4.6964768 0.910415,0 1.722233,-0.227841 2.395761,-0.606352 z m 3.444468,2.934992 -1.662052,-1.419723 c -1.16779,0.776621 -2.594234,1.249454 -4.216591,1.249454 -4.256287,0 -7.225699,-3.085661 -7.225699,-6.8168742 v -0.037974 c 0,-3.7299878 3.009107,-6.8548478 7.264113,-6.8548478 4.256286,0 7.225699,3.0868864 7.225699,6.8168742 v 0.037974 c 0,1.4956698 -0.513469,2.9166178 -1.404677,4.0717498 l 1.583943,1.287428 z"
           id="Fill-89" />
        <polygon
           id="Fill-90"
           points="50.81694,15.816845 41.789815,15.816845 41.789815,1.9368804 44.05165,1.9368804 44.05165,13.595435 50.81694,13.595435 " />
        <path
           d="m 54.202111,16.508448 c 2.46172,-0.669928 2.789506,-1.296592 2.789506,-2.776727 0,-0.405103 -0.04114,-1.07372 -0.04114,-1.501111 0,-1.579771 0.780319,-2.3493361 2.133932,-2.7767266 -1.373519,-0.4444336 -2.133932,-1.1943335 -2.133932,-2.775416 0,-0.4260795 0.04114,-1.0946965 0.04114,-1.4997997 0,-1.4801345 -0.327786,-2.10811 -2.789506,-2.776727 l 0.429972,-1.62172398 c 3.734381,0.66992798 4.658024,1.96652058 4.658024,4.03267818 0,0.3054662 -0.04114,1.1156727 -0.04114,1.4604692 0,1.5810826 0.615762,2.2483886 2.318396,2.2483886 h 0.533483 v 1.8655723 h -0.533483 c -1.702634,0 -2.318396,0.648952 -2.318396,2.230034 0,0.343486 0.04114,1.155004 0.04114,1.457848 0,2.088445 -0.923643,3.385037 -4.658024,4.054965 z"
           id="Fill-91" />
      </g>
      <path
         d="M 16.596091,54.69069 H 70.308034"
         id="Stroke-92"
         stroke="#ffffff"
         stroke-width="3.07994" />
      <path
         d="m 16.596091,111.90557 h 37.36483"
         id="Stroke-93"
         stroke="#ffffff"
         stroke-width="3.07994" />
      <path
         d="M 16.596091,90.870686 H 59.799176"
         id="Stroke-94"
         stroke="#ffffff"
         stroke-width="3.07994" />
      <path
         d="m 104.16991,90.870686 h 74.97308"
         id="Stroke-95"
         stroke="#ffffff"
         stroke-width="3.07994" />
      <path
         d="M 36.446157,65.628828 H 90.1581"
         id="Stroke-96"
         stroke="#ffffff"
         stroke-width="3.07994" />
      <path
         d="M 36.446157,100.96743 H 117.01407"
         id="Stroke-97"
         stroke="#ffffff"
         stroke-width="3.07994" />
      <path
         d="M 52.79327,79.091152 H 169.59425"
         id="Stroke-98"
         stroke="#ffffff"
         stroke-width="3.07994" />
      <path
         d="m 142.70239,66.470224 h 42.80644"
         id="Stroke-99"
         stroke="#ffffff"
         stroke-width="3.07994" />
      <path
         d="M 59.799176,112.74696 H 88.960385"
         id="Stroke-100"
         stroke="#ffffff"
         stroke-width="3.07994" />
      <path
         d="M 99.499308,65.628828 H 134.52884"
         id="Stroke-101"
         stroke="#ffffff"
         stroke-width="3.07994" />
      <path
         d="m 125.18763,101.80882 h 51.83342"
         id="Stroke-102"
         stroke="#ffffff"
         stroke-width="3.07994" />
    </g>
    <path
       d="M 18.20259,173.55289 H 42.297903"
       id="Stroke-104"
       stroke="#000000"
       stroke-width="3.07994"
       opacity="0.8"
       stroke-linecap="round"
       stroke-linejoin="round" />
    <path
       d="M 50.679344,173.55289 H 74.774657"
       id="Stroke-105"
       stroke="#000000"
       stroke-width="3.07994"
       opacity="0.8"
       stroke-linecap="round"
       stroke-linejoin="round" />
    <path
       d="m 213.06302,173.55289 h 24.09532"
       id="Stroke-106"
       stroke="#000000"
       stroke-width="3.07994"
       opacity="0.8"
       stroke-linecap="round"
       stroke-linejoin="round" />
    <path
       d="M 245.53969,173.55289 H 269.635"
       id="Stroke-107"
       stroke="#000000"
       stroke-width="3.07994"
       opacity="0.8"
       stroke-linecap="round"
       stroke-linejoin="round" />
    <path
       d="M 2.4884467,184.34805 H 287.44598"
       id="Stroke-108"
       stroke="#000000"
       stroke-width="8.31585"
       stroke-linecap="round"
       stroke-linejoin="round" />
  </g>
  <g
     id="Jason"
     opacity="0.9"
     transform="translate(5,46)"
     style="fill:none;fill-rule:evenodd;stroke:none;stroke-width:1">
    <g
       id="JSON"
       transform="translate(0.916667,30.246794)"
       fill="#b36cdb">
      <path
         d="M 8.8709677,18.266615 9.1666667,17.1783 C 5.7168459,16.410078 5.3225806,15.663195 5.3225806,13.74264 c 0,-0.42679 0.024642,-1.152333 0.024642,-1.600463 0,-1.792518 -0.9117383,-2.5394005 -2.562724,-3.0088696 1.5770609,-0.42679 2.562724,-1.2163517 2.562724,-3.00887 0,-0.4481295 -0.024642,-1.1736726 -0.024642,-1.6004627 0,-1.9205553 0.3942653,-2.6674379 3.8440861,-3.43566 L 8.8709677,0 C 4.4354839,0.70420361 3.5237455,2.0912713 3.5237455,4.3105797 c 0,0.3200925 0.024642,1.2590307 0.024642,1.6218022 0,1.6644813 -0.6899642,2.5607404 -2.9077061,2.5607404 H 0 v 1.2803702 h 0.640681 c 2.2177419,0 2.9077061,0.8962595 2.9077061,2.5607405 0,0.362772 -0.024642,1.30171 -0.024642,1.621802 0,2.219308 0.9117384,3.606376 5.3472226,4.31058 z"
         id="{-" />
      <path
         d="m 18.569781,17.30787 c 1.506182,0 2.775677,-0.47685 3.65787,-1.407841 0.882192,-0.930992 1.420114,-2.338834 1.420114,-4.223524 V 1.1858162 H 20.915121 V 11.585676 c 0,2.134469 -0.96826,3.133582 -2.388374,3.133582 -1.269496,0 -2.151688,-0.681213 -3.03388,-1.88469 L 13.75,14.741965 c 0.989777,1.430549 2.495958,2.565905 4.819781,2.565905 z m 13.968339,0 c 3.162981,0 5.37922,-1.771155 5.37922,-4.745788 v -0.04541 c 0,-2.6340257 -1.635283,-3.8375029 -4.819781,-4.6549592 C 30.19278,7.135081 29.50424,6.5901102 29.50424,5.3639258 v -0.045414 c 0,-1.0445274 0.903709,-1.8846908 2.452924,-1.8846908 1.377081,0 2.732644,0.567678 4.088208,1.6349125 L 37.465486,2.9569714 C 35.937787,1.6626656 34.19492,0.95874498 32.000198,0.95874498 c -2.990846,0 -5.142534,1.88469082 -5.142534,4.60954492 v 0.045414 c 0,2.9292183 1.807418,3.9283315 5.013433,4.7457881 2.797194,0.681213 3.399667,1.294306 3.399667,2.429661 v 0.04542 c 0,1.18077 -1.03281,1.998226 -2.668093,1.998226 -1.850452,0 -3.3136,-0.749335 -4.755231,-2.066348 l -1.592249,1.998227 c 1.807418,1.703033 3.980623,2.543197 6.282929,2.543197 z m 15.668173,0.04541 c -4.626129,0 -7.853661,-3.70126 -7.853661,-8.1745623 v -0.045414 c 0,-4.4733022 3.270565,-8.21997666 7.896695,-8.21997666 4.626129,0 7.853661,3.70126026 7.853661,8.17456246 v 0.045414 c 0,4.4733025 -3.270566,8.2199765 -7.896695,8.2199765 z m 0.04303,-2.588611 c 2.990846,0 5.077983,-2.497783 5.077983,-5.5859513 v -0.045414 c 0,-3.088168 -2.130171,-5.6313652 -5.121017,-5.6313652 -2.990847,0 -5.077984,2.4977829 -5.077984,5.585951 v 0.045414 c 0,3.0881685 2.130171,5.6313655 5.121018,5.6313655 z m 11.042043,2.316126 h 2.603542 V 5.772654 l 8.305516,11.308145 h 2.216239 V 1.1858162 H 69.813124 V 12.176061 L 61.744294,1.1858162 H 59.29137 Z"
         id="path260" />
      <path
         d="m 77.32034,18.266615 c 4.435484,-0.704204 5.347223,-2.091272 5.347223,-4.31058 0,-0.320092 -0.02464,-1.25903 -0.02464,-1.621802 0,-1.664481 0.689964,-2.5607405 2.883065,-2.5607405 h 0.640681 V 8.4931223 h -0.640681 c -2.193101,0 -2.883065,-0.8962591 -2.883065,-2.5607404 0,-0.3627715 0.02464,-1.3017097 0.02464,-1.6218022 C 82.667563,2.0912713 81.755824,0.70420361 77.32034,0 L 77,1.0883147 c 3.474462,0.7682221 3.868728,1.5151047 3.868728,3.43566 0,0.4267901 -0.02464,1.1523332 -0.02464,1.6004627 0,1.7925183 0.911738,2.539401 2.562724,3.00887 -1.577061,0.4267901 -2.562724,1.2163516 -2.562724,3.0088696 0,0.44813 0.02464,1.173673 0.02464,1.600463 0,1.920555 -0.394266,2.667438 -3.868728,3.43566 z"
         id="-}" />
    </g>
    <g
       id="g271">
      <g
         id="g266">
        <polyline
           id="Stroke-20"
           fill="#b36cdb"
           points="11.9166667 23.7465993 31.2601721 0 70.2535332 6.78274617 76.0833333 23.7442701" />
        <path
           d="M 0,23.853478 H 88"
           id="Stroke-113"
           stroke="#b36cdb"
           stroke-width="1.83582" />
      </g>
      <g
         id="Group-2"
         transform="translate(0,53.993393)">
        <polyline
           id="Stroke-19"
           fill="#b36cdb"
           points="75.1666667 0.916698895 57.8424541 21.0066071 18.0457631 14.4679 12.8333333 0.913330742" />
        <path
           d="M 0,0.91333074 H 88"
           id="Stroke-115"
           stroke="#b36cdb"
           stroke-width="1.83582" />
      </g>
    </g>
  </g>
  <g
     transform="translate(384.57097,71.884162)"
     fill="#eb4970"
     id="g280"
     style="opacity:0.9;fill-rule:evenodd;stroke:none;stroke-width:1">
    <path
       d="m 8.2437276,17.111111 0.2747909,-1.01947 c -3.205894,-0.719626 -3.5722819,-1.419263 -3.5722819,-3.218328 0,-0.399793 0.022899,-1.07944 0.022899,-1.499222 0,-1.6791273 -0.847272,-2.3787639 -2.3815213,-2.8185354 1.4655516,-0.3997924 2.3815213,-1.1394081 2.3815213,-2.8185359 0,-0.4197819 -0.022899,-1.0994288 -0.022899,-1.4992212 0,-1.7990654 0.3663879,-2.4987019 3.5722819,-3.2183281 L 8.2437276,0 C 4.1218638,0.65965732 3.2745918,1.9589824 3.2745918,4.0379024 c 0,0.2998442 0.022899,1.1793873 0.022899,1.5192108 0,1.55919 -0.6411788,2.3987539 -2.70211067,2.3987539 H 0 V 9.155244 h 0.59538033 c 2.06093187,0 2.70211067,0.8395639 2.70211067,2.398754 0,0.339823 -0.022899,1.219367 -0.022899,1.519211 0,2.07892 0.847272,3.378245 4.9691356,4.037902 z"
       id="path274" />
    <path
       d="m 73.556949,17.111111 c 4.121864,-0.659657 4.969136,-1.958982 4.969136,-4.037902 0,-0.299844 -0.0229,-1.179388 -0.0229,-1.519211 0,-1.5591901 0.641179,-2.398754 2.679211,-2.398754 h 0.595381 V 7.9558671 h -0.595381 c -2.038032,0 -2.679211,-0.8395639 -2.679211,-2.3987539 0,-0.3398235 0.0229,-1.2193666 0.0229,-1.5192108 0,-2.07892 -0.847272,-3.37824508 -4.969136,-4.0379024 l -0.29769,1.0194704 c 3.228794,0.7196262 3.595181,1.4192627 3.595181,3.2183281 0,0.3997924 -0.0229,1.0794393 -0.0229,1.4992212 0,1.6791278 0.847272,2.3787643 2.381522,2.8185359 -1.465552,0.3997923 -2.381522,1.1394081 -2.381522,2.8185354 0,0.419782 0.0229,1.099429 0.0229,1.499222 0,1.799065 -0.366387,2.498702 -3.595181,3.218328 z"
       id="path278" />
    <text
       xml:space="preserve"
       style="font-style:normal;font-variant:normal;font-weight:normal;font-stretch:normal;font-size:17.4px;font-family:'MS PGothic';-inkscape-font-specification:'MS PGothic, Normal';font-variant-ligatures:normal;font-variant-caps:normal;font-variant-numeric:normal;font-variant-east-asian:normal;fill:#ff2a7f;stroke-width:1.45"
       x="17.431767"
       y="13.054652"
       id="text867"
       transform="scale(0.97834349,1.0221359)"><tspan
         sodipodi:role="line"
         id="tspan865"
         x="17.431767"
         y="13.054652"
         style="font-style:normal;font-variant:normal;font-weight:normal;font-stretch:normal;font-size:17.4px;font-family:'MS PGothic';-inkscape-font-specification:'MS PGothic, Normal';font-variant-ligatures:normal;font-variant-caps:normal;font-variant-numeric:normal;font-variant-east-asian:normal;fill:#ff2a7f;stroke-width:1.45">SQL++</tspan></text>
  </g>
  <g
     id="Square"
     transform="translate(380,44)"
     style="opacity:0.9;fill:none;fill-rule:evenodd;stroke:none;stroke-width:1">
    <g
       id="g284">
      <polyline
         id="Stroke-111"
         fill="#eb4970"
         points="16.6729377 20.4827364 21.0734023 0.314994104 81.7247861 13.618062 80.2266035 20.4839305" />
      <path
         d="M 0,20.533333 H 91.159287 Z"
         id="Stroke-118"
         stroke="#eb4970"
         stroke-width="1.7023" />
    </g>
    <g
       id="g288"
       transform="translate(0,53.089474)">
      <polyline
         id="Stroke-110"
         fill="#eb4970"
         points="73.8218136 0.739604383 68.9878526 22.8942693 8.33646886 9.5912014 10.2681478 0.739604383" />
      <path
         d="M 0,0.81052632 H 91.159287"
         id="Stroke-120"
         stroke="#eb4970"
         stroke-width="1.7023" />
    </g>
  </g>
  <g
     id="Group-11"
     transform="translate(-6,192)"
     style="fill:none;fill-rule:evenodd;stroke:none;stroke-width:1">
    <polygon
       id="polygon292"
       fill="#00b9be"
       fill-rule="nonzero"
       transform="rotate(11,49.081021,49.824526)"
       points="93.908681,58.56446 88.036341,73.687206 4.2533619,41.084591 10.132085,25.961846 " />
    <path
       d="m 30.314885,46.784376 1.838298,-4.714248"
       id="path294"
       stroke="#ffffff"
       stroke-width="0.7488"
       transform="rotate(11,31.234034,44.427252)" />
    <path
       d="m 34.115978,49.180492 1.838298,-4.727058"
       id="path296"
       stroke="#ffffff"
       stroke-width="0.7488"
       transform="rotate(11,35.035127,46.816963)" />
    <path
       d="M 37.914626,51.582779 39.752924,46.85572"
       id="path298"
       stroke="#ffffff"
       stroke-width="0.7488"
       transform="rotate(11,38.833775,49.219249)" />
    <path
       d="m 41.71954,53.986283 1.838297,-4.727059"
       id="path300"
       stroke="#666666"
       stroke-width="0.7488"
       transform="rotate(11,42.638689,51.622754)" />
    <path
       d="m 45.531941,56.384718 1.838298,-4.727059"
       id="path302"
       stroke="#666666"
       stroke-width="0.7488"
       transform="rotate(11,46.45109,54.021188)" />
    <path
       d="m 49.31928,58.778281 1.838298,-4.727059"
       id="Stroke-54"
       stroke="#666666"
       stroke-width="0.7488"
       transform="rotate(11,50.238429,56.414751)" />
    <path
       d="m 53.124746,61.176047 1.844681,-4.720653"
       id="Stroke-56"
       stroke="#ffffff"
       stroke-width="0.7488"
       transform="rotate(11,54.047087,58.815721)" />
    <path
       d="m 56.924064,63.577784 1.838298,-4.727059"
       id="path306"
       stroke="#ffffff"
       stroke-width="0.7488"
       transform="rotate(11,57.843213,61.214254)" />
    <path
       d="M 62.56101,61.253011 60.722712,65.98007"
       id="path308"
       stroke="#ffffff"
       stroke-width="0.7488"
       transform="rotate(11,61.641861,63.616541)" />
    <path
       d="M 64.522582,68.376069 66.36088,63.64901"
       id="path310"
       stroke="#ffffff"
       stroke-width="0.7488"
       transform="rotate(11,65.441731,66.012539)" />
    <path
       d="m 68.328718,70.773285 1.838298,-4.727058"
       id="path312"
       stroke="#ffffff"
       stroke-width="0.7488"
       transform="rotate(11,69.247867,68.409756)" />
    <path
       d="m 72.125533,73.175395 1.838298,-4.707843"
       id="path314"
       stroke="#ffffff"
       stroke-width="0.7488"
       transform="rotate(11,73.044682,70.821474)" />
    <path
       d="M 55.233172,48.598911 38.745938,42.193682 c -1.49682,-0.520756 -3.136213,0.238312 -3.712728,1.71906 -0.576515,1.480747 0.115872,3.154012 1.568047,3.789437 l 0.880851,0.339477 -13.914894,33.179085 c -1.140209,2.956571 -0.621973,6.298971 1.359494,8.768149 1.981467,2.469178 5.125132,3.690007 8.246808,3.202614 3.121676,-0.487393 5.747106,-2.608963 6.887315,-5.565534 l 12.12766,-33.87085 0.880851,0.339477 c 0.990714,0.433505 2.138373,0.288421 2.990988,-0.378111 0.852614,-0.666532 1.273559,-1.747707 1.097051,-2.817716 -0.176509,-1.07001 -0.922187,-1.957395 -1.943358,-2.312669"
       id="Fill-72"
       fill="#ffffff"
       fill-rule="nonzero"
       transform="rotate(11,40.08407,67.663448)" />
    <path
       d="M 55.233172,48.598911 38.745938,42.193682 c -1.49682,-0.520756 -3.136213,0.238312 -3.712728,1.71906 -0.576515,1.480747 0.115872,3.154012 1.568047,3.789437 l 0.880851,0.339477 -13.914894,33.179085 c -1.140209,2.956571 -0.621973,6.298971 1.359494,8.768149 1.981467,2.469178 5.125132,3.690007 8.246808,3.202614 3.121676,-0.487393 5.747106,-2.608963 6.887315,-5.565534 l 12.12766,-33.87085 0.880851,0.339477 c 0.990714,0.433505 2.138373,0.288421 2.990988,-0.378111 0.852614,-0.666532 1.273559,-1.747707 1.097051,-2.817716 -0.176509,-1.07001 -0.922187,-1.957395 -1.943358,-2.312669 z"
       id="path317"
       fill="#0174e0"
       fill-rule="nonzero"
       transform="rotate(11,40.08407,67.663448)" />
    <path
       d="m 45.097963,50.977987 5.495745,2.139346"
       id="path319"
       stroke="#ffffff"
       stroke-width="1.4976"
       transform="rotate(11,47.845836,52.04766)" />
    <path
       d="M 69.414132,11.327725 54.777962,48.977659"
       id="path321"
       stroke="#0174e0"
       stroke-width="2.2464"
       transform="rotate(11,62.096047,30.152692)" />
    <polygon
       id="polygon323"
       fill="#0174e0"
       fill-rule="nonzero"
       transform="rotate(11,75.898115,8.271752)"
       points="78.661944,11.612079 80.385349,3.23404 75.993859,1.5238439 71.608753,8.8642361 71.410881,13.31587 75.80237,15.019661 " />
    <path
       d="M 41.988126,55.124085 29.8477,86.362385"
       id="Stroke-82"
       stroke="#ffffff"
       stroke-width="0.7488"
       stroke-linecap="round"
       stroke-linejoin="round"
       transform="rotate(11,35.917913,70.743235)" />
    <path
       d="M 44.801117,57.465918 33.381968,86.859512"
       id="Stroke-84"
       stroke="#ffffff"
       stroke-width="0.7488"
       stroke-linecap="round"
       stroke-linejoin="round"
       transform="rotate(11,39.091542,72.162715)" />
    <path
       d="m 38.986444,53.790305 -11.425532,29.4"
       id="Stroke-86"
       stroke="#ffffff"
       stroke-width="0.7488"
       stroke-linecap="round"
       stroke-linejoin="round"
       transform="rotate(11,33.273678,68.490305)" />
  </g>
  <metadata
     id="metadata919">
    <rdf:RDF>
      <cc:Work
         rdf:about="">
        <dc:title>Get the agility of SQL and the flexibility of JSON</dc:title>
      </cc:Work>
    </rdf:RDF>
  </metadata>
</svg>
