<?xml version="1.0" encoding="UTF-8"?>
<svg width="480px" height="280px" viewBox="0 0 480 280" version="1.1" xmlns="http://www.w3.org/2000/svg" xmlns:xlink="http://www.w3.org/1999/xlink">
    <!-- Generator: Sketch 47.1 (45422) - http://www.bohemiancoding.com/sketch -->
    <title>Manage and store data locally</title>
    <desc>Created with Sketch.</desc>
    <defs>
        <linearGradient x1="0%" y1="0%" x2="119.328507%" y2="117.647421%" id="linearGradient-1">
            <stop stop-color="#EB4971" offset="0%"></stop>
            <stop stop-color="#B36CDB" offset="100%"></stop>
        </linearGradient>
    </defs>
    <g id="Lite" stroke="none" stroke-width="1" fill="none" fill-rule="evenodd">
        <g id="Manage-and-store-data-locally">
            <g id="Group-2" transform="translate(381.000000, 0.000000)">
                <path d="M14.58,45 L14.58,28.2 L22.068,28.2 C24.18,28.2 25.836,28.824 26.916,29.88 C27.804,30.792 28.308,32.04 28.308,33.504 L28.308,33.552 C28.308,36.312 26.652,37.968 24.324,38.64 L28.86,45 L25.356,45 L21.228,39.144 L17.532,39.144 L17.532,45 L14.58,45 Z M17.532,36.528 L21.852,36.528 C23.964,36.528 25.308,35.424 25.308,33.72 L25.308,33.672 C25.308,31.872 24.012,30.888 21.828,30.888 L17.532,30.888 L17.532,36.528 Z M30.932,45 L43.508,45 L43.508,42.36 L33.884,42.36 L33.884,37.872 L42.308,37.872 L42.308,35.208 L33.884,35.208 L33.884,30.84 L43.388,30.84 L43.388,28.2 L30.932,28.2 L30.932,45 Z M44.572,45 L51.964,28.08 L54.7,28.08 L62.092,45 L58.972,45 L57.268,40.944 L49.324,40.944 L47.596,45 L44.572,45 Z M50.404,38.328 L56.188,38.328 L53.284,31.608 L50.404,38.328 Z M63.972,45 L63.972,28.2 L70.236,28.2 C75.516,28.2 79.164,31.824 79.164,36.552 L79.164,36.6 C79.164,41.328 75.516,45 70.236,45 L63.972,45 Z M70.236,30.888 L66.924,30.888 L66.924,42.312 L70.236,42.312 C73.764,42.312 76.068,39.936 76.068,36.648 L76.068,36.6 C76.068,33.312 73.764,30.888 70.236,30.888 Z" id="READ" fill="#00B9BE"></path>
                <g>
                    <polyline id="Stroke-111" fill="#00B9BE" fill-rule="nonzero" points="16.6729377 20.4827364 21.0734023 0.314994104 81.7247861 13.618062 80.2266035 20.4839305"></polyline>
                    <path d="M0,20.5333333 L91.159287,20.5333333 L0,20.5333333 Z" id="Stroke-118" stroke="#00B9BE" stroke-width="1.70230248"></path>
                </g>
                <g id="Group" transform="translate(0.000000, 53.089474)">
                    <polyline id="Stroke-110" fill="#00B9BE" fill-rule="nonzero" points="73.8218136 0.739604383 68.9878526 22.8942693 8.33646886 9.5912014 10.2681478 0.739604383"></polyline>
                    <path d="M0,0.810526316 L91.159287,0.810526316" id="Stroke-120" stroke="#00B9BE" stroke-width="1.70230248"></path>
                </g>
            </g>
            <g id="Group-4" transform="translate(153.000000, 52.000000)">
                <g id="Group-2">
                    <polygon id="Stroke-1270" stroke="#010202" stroke-width="2.9403" points="0.358786626 160.274669 124.941071 160.274669 124.941071 18.6806259 0.358786626 18.6806259"></polygon>
                    <path d="M125.078409,180.037771 C125.078409,184.729511 121.204298,188.567673 116.469491,188.567673 L8.9668228,188.567673 C4.23299598,188.567673 0.358884655,184.729511 0.358884655,180.037771 L0.358884655,9.40830495 C0.358884655,4.71656371 4.23299598,0.878401491 8.9668228,0.878401491 L116.469491,0.878401491 C121.204298,0.878401491 125.078409,4.71656371 125.078409,9.40830495 L125.078409,180.037771 Z" id="Stroke-1272" stroke="#010202" stroke-width="3.3" fill="#FFFFFF" fill-rule="nonzero" stroke-linecap="round" stroke-linejoin="round"></path>
                    <polygon id="Fill-1268" fill="url(#linearGradient-1)" fill-rule="nonzero" points="1.08854436 161.255892 123.985204 161.255892 123.985204 19.6618493 1.08854436 19.6618493"></polygon>
                    <path d="M69.327085,174.645015 C69.1212238,178.297744 65.9960551,181.091989 62.3464304,180.886934 C58.6968059,180.680898 55.9039559,177.552089 56.1098171,173.899359 C56.3156782,170.24663 59.440847,167.452385 63.0914518,167.658421 C66.7410765,167.864457 69.5329462,170.992285 69.327085,174.645015 Z" id="Stroke-1273" stroke="#010202" stroke-width="2.9403"></path>
                    <path d="M0.780605985,160.274767 L124.2532,160.274767" id="Stroke-1274" stroke="#010202" stroke-width="2.9403" stroke-linecap="round" stroke-linejoin="round"></path>
                    <path d="M0.982251911,18.6809203 L124.454846,18.6809203" id="Stroke-1275" stroke="#010202" stroke-width="2.9403" stroke-linecap="round" stroke-linejoin="round"></path>
                    <path d="M89.2352334,64.444333 C89.2352334,70.7824025 77.3629251,75.9205559 62.718353,75.9205559 C48.0737808,75.9205559 36.2014725,70.7824025 36.2014725,64.444333 C36.2014725,58.1062635 48.0737808,52.9681103 62.718353,52.9681103 C77.3629251,52.9681103 89.2352334,58.1062635 89.2352334,64.444333 Z" id="Stroke-1276" stroke="#FEFEFE" stroke-width="1.9602"></path>
                    <path d="M89.34483,110.936231 C89.34483,117.274301 77.4235072,122.412454 62.7181569,122.412454 C48.013787,122.412454 36.0924641,117.274301 36.0924641,110.936231" id="Stroke-1277" stroke="#FEFEFE" stroke-width="1.9602"></path>
                    <path d="M36.2253917,64.2561532 L36.2253917,111.667072" id="Stroke-1278" stroke="#FEFEFE" stroke-width="1.9602"></path>
                    <path d="M89.1521047,64.2561532 L89.1521047,111.667072" id="Stroke-1279" stroke="#FEFEFE" stroke-width="1.9602"></path>
                    <path d="M50.9568176,99.6187547 C50.9568176,99.3420774 51.0126942,98.6582331 51.0126942,98.344273 C51.0126942,96.903981 50.4225588,96.4418709 48.9834911,96.4418709 L48.5031485,96.4418709 L48.5031485,94.3000744 L48.9834911,94.3000744 C50.4225588,94.3000744 51.0126942,93.8379644 51.0126942,92.3976725 C51.0126942,92.0837124 50.9568176,91.4008491 50.9568176,91.1241718 C50.9568176,89.2404112 51.8978973,88.0581552 55.2750009,87.4675178 L55.7729889,89.3326369 C53.8173077,89.8869727 53.5222401,90.4030447 53.5222401,91.5303576 C53.5222401,91.8992608 53.5781166,92.5085396 53.5781166,92.8970652 C53.5781166,94.2451314 52.8948536,94.9652773 51.6577259,95.3714633 C52.8948536,95.7776491 53.5781166,96.4977951 53.5781166,97.8458613 C53.5781166,98.2334058 53.5222401,98.8436657 53.5222401,99.2125689 C53.5222401,100.338901 53.8173077,100.855954 55.7729889,101.41029 L55.2750009,103.275409 C51.8978973,102.684771 50.9568176,101.502515 50.9568176,99.6187547" id="Fill-1280" fill="#FEFEFE" fill-rule="nonzero"></path>
                    <polygon id="Fill-1281" fill="#FEFEFE" fill-rule="nonzero" points="56.8647393 100.671306 59.8546279 100.671306 59.8546279 97.7161565 56.8647393 97.7161565"></polygon>
                    <polygon id="Fill-1282" fill="#FEFEFE" fill-rule="nonzero" points="61.2240949 100.671306 64.2130031 100.671306 64.2130031 97.7161565 61.2240949 97.7161565"></polygon>
                    <polygon id="Fill-1283" fill="#FEFEFE" fill-rule="nonzero" points="65.5814899 100.671306 68.5713784 100.671306 68.5713784 97.7161565 65.5814899 97.7161565"></polygon>
                    <path d="M69.663619,101.409995 C71.6202805,100.856641 71.9153482,100.338606 71.9153482,99.2122745 C71.9153482,98.8433714 71.8594715,98.2331114 71.8594715,97.8455669 C71.8594715,96.4975008 72.5427346,95.7773547 73.778882,95.3711689 C72.5427346,94.9649831 71.8594715,94.244837 71.8594715,92.8967709 C71.8594715,92.5092264 71.9153482,91.8999475 71.9153482,91.5300633 C71.9153482,90.4037315 71.6202805,89.8866785 69.663619,89.3323427 L70.1625873,87.4672234 C73.5387106,88.0578608 74.4797903,89.2401168 74.4797903,91.1238774 C74.4797903,91.4005548 74.424894,92.0843991 74.424894,92.3983592 C74.424894,93.8386512 75.0150294,94.2997801 76.4540971,94.2997801 L76.9334594,94.2997801 L76.9334594,96.4425577 L76.4540971,96.4425577 C75.0150294,96.4425577 74.424894,96.9036866 74.424894,98.3439786 C74.424894,98.6589198 74.4797903,99.3417831 74.4797903,99.6184604 C74.4797903,101.502221 73.5387106,102.684477 70.1625873,103.275114 L69.663619,101.409995 Z" id="Fill-1284" fill="#FEFEFE" fill-rule="nonzero"></path>
                </g>
                <g id="Group-3" transform="translate(100.970007, 66.617820)">
                    <path d="M76.3417557,116.465461 C76.3417557,119.301894 73.9988594,121.623237 71.1364087,121.623237 L6.13231044,121.623237 C3.26887946,121.623237 0.92696348,119.301894 0.92696348,116.465461 L0.92696348,6.01429816 C0.92696348,3.17688376 3.26887946,0.856522397 6.13231044,0.856522397 L71.1364087,0.856522397 C73.9988594,0.856522397 76.3417557,3.17688376 76.3417557,6.01429816 L76.3417557,116.465461 Z" id="Fill-1285" fill="#FEFEFE" fill-rule="nonzero"></path>
                    <path d="M76.3417557,116.465461 C76.3417557,119.301894 73.9988594,121.623237 71.1364087,121.623237 L6.13231044,121.623237 C3.26887946,121.623237 0.92696348,119.301894 0.92696348,116.465461 L0.92696348,6.01429816 C0.92696348,3.17688376 3.26887946,0.856522397 6.13231044,0.856522397 L71.1364087,0.856522397 C73.9988594,0.856522397 76.3417557,3.17688376 76.3417557,6.01429816 L76.3417557,116.465461 Z" id="Stroke-1286" stroke="#010202" stroke-width="2.9403" stroke-linecap="round" stroke-linejoin="round"></path>
                    <polygon id="Fill-1288" fill="url(#linearGradient-1)" fill-rule="nonzero" points="0.926375305 95.8343581 76.3411675 95.8343581 76.3411675 15.111292 0.926375305 15.111292"></polygon>
                    <polygon id="Stroke-1290" stroke="#010202" stroke-width="2.9403" points="0.927355596 95.8343581 76.3421477 95.8343581 76.3421477 15.111292 0.927355596 15.111292"></polygon>
                    <path d="M1.18164317,95.8344563 L75.8425913,95.8344563" id="Stroke-1292" stroke="#010202" stroke-width="2.9403" stroke-linecap="round" stroke-linejoin="round"></path>
                    <path d="M1.30359141,15.1111939 L75.9645395,15.1111939" id="Stroke-1293" stroke="#010202" stroke-width="2.9403" stroke-linecap="round" stroke-linejoin="round"></path>
                    <path d="M44.6673665,108.593108 C44.6673665,111.927953 41.9666639,114.631934 38.6336733,114.631934 C35.3016631,114.631934 32.6009605,111.927953 32.6009605,108.593108 C32.6009605,105.258263 35.3016631,102.554282 38.6336733,102.554282 C41.9666639,102.554282 44.6673665,105.258263 44.6673665,108.593108 Z" id="Stroke-1294" stroke="#010202" stroke-width="2.9403"></path>
                    <path d="M32.8911268,7.94476032 L44.3772002,7.94476032" id="Stroke-1295" stroke="#010202" stroke-width="1.9602" stroke-linecap="round" stroke-linejoin="round"></path>
                    <path d="M24.7584338,7.94476032 L26.7827354,7.94476032" id="Stroke-1296" stroke="#010202" stroke-width="1.9602" stroke-linecap="round" stroke-linejoin="round"></path>
                    <path d="M54.2200114,41.3791562 C54.2200114,45.01815 47.4030655,47.969375 38.9941265,47.969375 C30.5851874,47.969375 23.7682416,45.01815 23.7682416,41.3791562 C23.7682416,37.7401625 30.5851874,34.7889375 38.9941265,34.7889375 C47.4030655,34.7889375 54.2200114,37.7401625 54.2200114,41.3791562 Z" id="Stroke-1297" stroke="#FEFEFE" stroke-width="1.9602"></path>
                    <path d="M54.2829461,68.0747911 C54.2829461,71.7137849 47.4375718,74.6650097 38.9943225,74.6650097 C30.5500931,74.6650097 23.7056989,71.7137849 23.7056989,68.0747911" id="Stroke-1298" stroke="#FEFEFE" stroke-width="1.9602"></path>
                    <path d="M23.7817696,41.2711343 L23.7817696,68.4944183" id="Stroke-1299" stroke="#FEFEFE" stroke-width="1.9602"></path>
                    <path d="M54.1722712,41.2711343 L54.1722712,68.4944183" id="Stroke-1300" stroke="#FEFEFE" stroke-width="1.9602"></path>
                    <path d="M32.2405074,61.5763076 C32.2405074,61.4173653 32.2728571,61.0249151 32.2728571,60.844388 C32.2728571,60.0172994 31.9336762,59.7523956 31.1072907,59.7523956 L30.8318287,59.7523956 L30.8318287,58.5220645 L31.1072907,58.5220645 C31.9336762,58.5220645 32.2728571,58.2571607 32.2728571,57.4300719 C32.2728571,57.249545 32.2405074,56.858076 32.2405074,56.6981525 C32.2405074,55.6169524 32.7806479,54.9380137 34.7196642,54.5985444 L35.0059093,55.6699332 C33.8824954,55.9878178 33.7138853,56.2850987 33.7138853,56.9316604 C33.7138853,57.1435834 33.7452546,57.4938452 33.7452546,57.7165606 C33.7452546,58.4906684 33.3531381,58.9037222 32.6434071,59.1372301 C33.3531381,59.3707379 33.7452546,59.7847727 33.7452546,60.5578995 C33.7452546,60.7806149 33.7138853,61.1308767 33.7138853,61.3427997 C33.7138853,61.9893614 33.8824954,62.2866423 35.0059093,62.6045269 L34.7196642,63.6759157 C32.7806479,63.3364463 32.2405074,62.6575077 32.2405074,61.5763076" id="Fill-1301" fill="#FEFEFE" fill-rule="nonzero"></path>
                    <polygon id="Fill-1302" fill="#FEFEFE" fill-rule="nonzero" points="35.6326095 62.1807789 37.3490996 62.1807789 37.3490996 60.4844131 35.6326095 60.4844131"></polygon>
                    <polygon id="Fill-1303" fill="#FEFEFE" fill-rule="nonzero" points="38.1362735 62.1807789 39.8527637 62.1807789 39.8527637 60.4844131 38.1362735 60.4844131"></polygon>
                    <polygon id="Fill-1304" fill="#FEFEFE" fill-rule="nonzero" points="40.637977 62.1807789 42.3544671 62.1807789 42.3544671 60.4844131 40.637977 60.4844131"></polygon>
                    <path d="M42.9820496,62.6048212 C44.1054635,62.2869366 44.2750539,61.9896556 44.2750539,61.3430941 C44.2750539,61.131171 44.2427043,60.7809093 44.2427043,60.5581938 C44.2427043,59.784086 44.6348208,59.3710322 45.3445518,59.1375243 C44.6348208,58.9040166 44.2427043,58.4909628 44.2427043,57.7168549 C44.2427043,57.4941394 44.2750539,57.1438777 44.2750539,56.9319546 C44.2750539,56.2853931 44.1054635,55.9881122 42.9820496,55.6702276 L43.2682947,54.5988387 C45.2073109,54.938308 45.7474515,55.6172468 45.7474515,56.6984468 C45.7474515,56.8573892 45.7160822,57.2498392 45.7160822,57.4303663 C45.7160822,58.2574549 46.0542827,58.5223588 46.8806683,58.5223588 L47.1561301,58.5223588 L47.1561301,59.75269 L46.8806683,59.75269 C46.0542827,59.75269 45.7160822,60.0175938 45.7160822,60.8446824 C45.7160822,61.0252095 45.7474515,61.4176595 45.7474515,61.5766018 C45.7474515,62.6578019 45.2073109,63.3367407 43.2682947,63.6762101 L42.9820496,62.6048212 Z" id="Fill-1305" fill="#FEFEFE" fill-rule="nonzero"></path>
                </g>
            </g>
            <g id="Group-4" transform="translate(2.000000, 46.000000)">
                <g id="Group" transform="translate(4.000000, 0.000000)">
                    <polyline id="Stroke-20" fill="#B36CDB" fill-rule="nonzero" points="11.9166667 23.7465993 31.2601721 0 70.2535332 6.78274617 76.0833333 23.7442701"></polyline>
                    <path d="M0,23.8534784 L88,23.8534784" id="Stroke-113" stroke="#B36CDB" stroke-width="1.8358164"></path>
                </g>
                <g id="Group-2" transform="translate(4.000000, 53.993393)">
                    <polyline id="Stroke-19" fill="#B36CDB" fill-rule="nonzero" points="75.1666667 0.916698895 57.8424541 21.0066071 18.0457631 14.4679 12.8333333 0.913330742"></polyline>
                    <path d="M0,0.913330742 L88,0.913330742" id="Stroke-115" stroke="#B36CDB" stroke-width="1.8358164"></path>
                </g>
                <path d="M10.184,47.288 C13.328,47.288 15.248,46.136 17,44.312 L15.104,42.392 C13.664,43.736 12.344,44.552 10.28,44.552 C7.064,44.552 4.736,41.888 4.736,38.6 L4.736,38.552 C4.736,35.264 7.088,32.648 10.256,32.648 C12.2,32.648 13.616,33.464 14.984,34.712 L16.88,32.528 C15.272,30.992 13.4,29.912 10.28,29.912 C5.216,29.912 1.64,33.824 1.64,38.6 L1.64,38.648 C1.64,43.472 5.264,47.288 10.184,47.288 Z M19.12,47 L19.12,30.2 L26.608,30.2 C28.72,30.2 30.376,30.824 31.456,31.88 C32.344,32.792 32.848,34.04 32.848,35.504 L32.848,35.552 C32.848,38.312 31.192,39.968 28.864,40.64 L33.4,47 L29.896,47 L25.768,41.144 L22.072,41.144 L22.072,47 L19.12,47 Z M22.072,38.528 L26.392,38.528 C28.504,38.528 29.848,37.424 29.848,35.72 L29.848,35.672 C29.848,33.872 28.552,32.888 26.368,32.888 L22.072,32.888 L22.072,38.528 Z M35.472,47 L48.048,47 L48.048,44.36 L38.424,44.36 L38.424,39.872 L46.848,39.872 L46.848,37.208 L38.424,37.208 L38.424,32.84 L47.928,32.84 L47.928,30.2 L35.472,30.2 L35.472,47 Z M49.112,47 L56.504,30.08 L59.24,30.08 L66.632,47 L63.512,47 L61.808,42.944 L53.864,42.944 L52.136,47 L49.112,47 Z M54.944,40.328 L60.728,40.328 L57.824,33.608 L54.944,40.328 Z M70.48,47 L70.48,32.936 L65.128,32.936 L65.128,30.2 L78.784,30.2 L78.784,32.936 L73.432,32.936 L73.432,47 L70.48,47 Z M80.856,47 L93.432,47 L93.432,44.36 L83.808,44.36 L83.808,39.872 L92.232,39.872 L92.232,37.208 L83.808,37.208 L83.808,32.84 L93.312,32.84 L93.312,30.2 L80.856,30.2 L80.856,47 Z" id="CREATE" fill="#B36CDB"></path>
            </g>
            <g id="Group-3" transform="translate(0.000000, 203.000000)">
                <g id="Group-2" transform="translate(46.000000, 66.000000) scale(-1, -1) translate(-46.000000, -66.000000) translate(0.000000, 55.000000)">
                    <polyline id="Stroke-111" fill="#FC9C0C" fill-rule="nonzero" points="16.6729377 20.4827364 21.0734023 0.314994104 81.7247861 13.618062 80.2266035 20.4839305"></polyline>
                    <path d="M0,20.5333333 L91.159287,20.5333333 L0,20.5333333 Z" id="Stroke-118" stroke="#FC9C0C" stroke-width="1.70230248"></path>
                </g>
                <g id="Group" transform="translate(46.000000, 12.410526) scale(-1, -1) translate(-46.000000, -12.410526) translate(0.000000, 0.910526)">
                    <polyline id="Stroke-110" fill="#FC9C0C" fill-rule="nonzero" points="73.8218136 0.739604383 68.9878526 22.8942693 8.33646886 9.5912014 10.2681478 0.739604383"></polyline>
                    <path d="M0,0.810526316 L91.159287,0.810526316" id="Stroke-120" stroke="#FC9C0C" stroke-width="1.70230248"></path>
                </g>
            </g>
            <path d="M8.46,251.264 C12.852,251.264 15.684,248.744 15.684,243.728 L15.684,234.2 L12.732,234.2 L12.732,243.872 C12.732,246.968 11.124,248.528 8.508,248.528 C5.868,248.528 4.26,246.872 4.26,243.752 L4.26,234.2 L1.308,234.2 L1.308,243.872 C1.308,248.744 4.092,251.264 8.46,251.264 Z M18.74,251 L18.74,234.2 L25.364,234.2 C29.3,234.2 31.748,236.432 31.748,239.816 L31.748,239.864 C31.748,243.632 28.724,245.6 25.028,245.6 L21.692,245.6 L21.692,251 L18.74,251 Z M21.692,242.936 L25.124,242.936 C27.356,242.936 28.748,241.688 28.748,239.936 L28.748,239.888 C28.748,237.92 27.332,236.888 25.124,236.888 L21.692,236.888 L21.692,242.936 Z M33.772,251 L33.772,234.2 L40.036,234.2 C45.316,234.2 48.964,237.824 48.964,242.552 L48.964,242.6 C48.964,247.328 45.316,251 40.036,251 L33.772,251 Z M40.036,236.888 L36.724,236.888 L36.724,248.312 L40.036,248.312 C43.564,248.312 45.868,245.936 45.868,242.648 L45.868,242.6 C45.868,239.312 43.564,236.888 40.036,236.888 Z M48.924,251 L56.316,234.08 L59.052,234.08 L66.444,251 L63.324,251 L61.62,246.944 L53.676,246.944 L51.948,251 L48.924,251 Z M54.756,244.328 L60.54,244.328 L57.636,237.608 L54.756,244.328 Z M70.292,251 L70.292,236.936 L64.94,236.936 L64.94,234.2 L78.596,234.2 L78.596,236.936 L73.244,236.936 L73.244,251 L70.292,251 Z M80.668,251 L93.244,251 L93.244,248.36 L83.62,248.36 L83.62,243.872 L92.044,243.872 L92.044,241.208 L83.62,241.208 L83.62,236.84 L93.124,236.84 L93.124,234.2 L80.668,234.2 L80.668,251 Z" id="UPDATE" fill="#FC9C0C"></path>
            <g id="Group-4" transform="translate(392.000000, 154.000000)">
                <g id="Group-5" transform="translate(44.000000, 38.000000) scale(-1, 1) translate(-44.000000, -38.000000) ">
                    <g id="Group">
                        <polyline id="Stroke-20" fill="#00ACE0" fill-rule="nonzero" points="11.9166667 23.7465993 31.2601721 0 70.2535332 6.78274617 76.0833333 23.7442701"></polyline>
                        <path d="M0,23.8534784 L88,23.8534784" id="Stroke-113" stroke="#00ACE0" stroke-width="1.8358164"></path>
                    </g>
                    <g id="Group-2" transform="translate(0.000000, 53.993393)">
                        <polyline id="Stroke-19" fill="#00ACE0" fill-rule="nonzero" points="75.1666667 0.916698895 57.8424541 21.0066071 18.0457631 14.4679 12.8333333 0.913330742"></polyline>
                        <path d="M0,0.913330742 L88,0.913330742" id="Stroke-115" stroke="#00ACE0" stroke-width="1.8358164"></path>
                    </g>
                </g>
                <path d="M20.908,45.392 L19.012,47.504 L16.996,45.704 C15.58,46.712 13.828,47.288 11.884,47.288 C6.724,47.288 3.124,43.376 3.124,38.648 L3.124,38.6 C3.124,33.872 6.772,29.912 11.932,29.912 C17.092,29.912 20.692,33.824 20.692,38.552 L20.692,38.6 C20.692,40.52 20.068,42.296 18.988,43.76 L20.908,45.392 Z M11.932,44.552 C13.036,44.552 13.996,44.288 14.836,43.808 L11.932,41.312 L13.828,39.152 L16.78,41.84 C17.308,40.928 17.596,39.848 17.596,38.648 L17.596,38.6 C17.596,35.336 15.22,32.648 11.884,32.648 C8.548,32.648 6.22,35.288 6.22,38.552 L6.22,38.6 C6.22,41.864 8.596,44.552 11.932,44.552 Z M30.156,47.264 C34.548,47.264 37.38,44.744 37.38,39.728 L37.38,30.2 L34.428,30.2 L34.428,39.872 C34.428,42.968 32.82,44.528 30.204,44.528 C27.564,44.528 25.956,42.872 25.956,39.752 L25.956,30.2 L23.004,30.2 L23.004,39.872 C23.004,44.744 25.788,47.264 30.156,47.264 Z M40.436,47 L53.012,47 L53.012,44.36 L43.388,44.36 L43.388,39.872 L51.812,39.872 L51.812,37.208 L43.388,37.208 L43.388,32.84 L52.892,32.84 L52.892,30.2 L40.436,30.2 L40.436,47 Z M55.516,47 L55.516,30.2 L63.004,30.2 C65.116,30.2 66.772,30.824 67.852,31.88 C68.74,32.792 69.244,34.04 69.244,35.504 L69.244,35.552 C69.244,38.312 67.588,39.968 65.26,40.64 L69.796,47 L66.292,47 L62.164,41.144 L58.468,41.144 L58.468,47 L55.516,47 Z M58.468,38.528 L62.788,38.528 C64.9,38.528 66.244,37.424 66.244,35.72 L66.244,35.672 C66.244,33.872 64.948,32.888 62.764,32.888 L58.468,32.888 L58.468,38.528 Z M76.212,47 L76.212,40.376 L69.54,30.2 L73.044,30.2 L77.724,37.616 L82.476,30.2 L85.86,30.2 L79.188,40.304 L79.188,47 L76.212,47 Z" id="QUERY" fill="#00ACE0"></path>
            </g>
        </g>
    </g>
</svg>