<?xml version="1.0" encoding="UTF-8"?>
<svg width="967px" height="457px" viewBox="0 0 967 457" version="1.1" xmlns="http://www.w3.org/2000/svg" xmlns:xlink="http://www.w3.org/1999/xlink" style="background: #FFFFFF;">
    <!-- Generator: Sketch 57.1 (83088) - https://sketch.com -->
    <title>replicator-states</title>
    <desc>Created with Sketch.</desc>
    <g id="static-auth-provider" stroke="none" stroke-width="1" fill="none" fill-rule="evenodd">
        <g id="replicator-states">
            <g id="Text" transform="translate(388.000000, 23.000000)">
                <text id="Internal-Replicator" font-family="Helvetica" font-size="21" font-weight="normal" letter-spacing="-0.129230766" fill="#000000">
                    <tspan x="13.0177313" y="22">Internal Replicator </tspan>
                    <tspan x="72.8059871" y="47">State</tspan>
                </text>
                <rect id="Rectangle" stroke="#000000" x="0.5" y="0.5" width="193" height="54"></rect>
            </g>
            <g id="Text" transform="translate(714.000000, 23.000000)">
                <text id="App-Actions" font-family="Helvetica" font-size="21" font-weight="normal" letter-spacing="-0.129230766" fill="#000000">
                    <tspan x="42.2525173" y="35">App Actions</tspan>
                </text>
                <rect id="Rectangle" stroke="#000000" x="0.5" y="0.5" width="193" height="54"></rect>
            </g>
            <g id="Text" transform="translate(67.000000, 23.000000)">
                <text id="Public-Replicator-St" font-family="Helvetica" font-size="21" font-weight="normal" letter-spacing="-0.129230766" fill="#000000">
                    <tspan x="19.3125728" y="22">Public Replicator </tspan>
                    <tspan x="72.8059871" y="47">State</tspan>
                </text>
                <rect id="Rectangle" stroke="#000000" x="0.5" y="0.5" width="193" height="54"></rect>
            </g>
            <path d="M163,116 L163,433.542969" id="Line" stroke="#000000" stroke-width="2" stroke-linecap="square"></path>
            <path d="M486,116 L486,433.542969" id="Line" stroke="#000000" stroke-width="2" stroke-linecap="square"></path>
            <path id="Line-2" d="M172.5,161 L172.5,165 L485.5,165 L485.5,166 L172.5,166 L172.5,170 L163.5,165.5 L172.5,161 Z" fill="#000000" fill-rule="nonzero"></path>
            <path id="Line-2" d="M172.5,201 L172.5,205 L485.5,205 L485.5,206 L172.5,206 L172.5,210 L163.5,205.5 L172.5,201 Z" fill="#000000" fill-rule="nonzero"></path>
            <path id="Line-2" d="M625.5,263 L625.5,267 L696,267 L696,268 L625.5,268 L625.5,272 L616.5,267.5 L625.5,263 Z" fill="#000000" fill-rule="nonzero"></path>
            <path id="Line-2" d="M625.5,163 L625.5,167 L696,167 L696,168 L625.5,168 L625.5,172 L616.5,167.5 L625.5,163 Z" fill="#000000" fill-rule="nonzero"></path>
            <path id="Line-2" d="M542,176.5 L542,186.5 L546,186.5 L541.5,195.5 L537,186.5 L541,186.5 L541,176.5 L542,176.5 Z" fill="#000000" fill-rule="nonzero"></path>
            <path id="Line-2" d="M542,278.5 L542,288.5 L546,288.5 L541.5,297.5 L537,288.5 L541,288.5 L541,278.5 L542,278.5 Z" fill="#000000" fill-rule="nonzero"></path>
            <path id="Line-2" d="M542,378.5 L542,388.5 L546,388.5 L541.5,397.5 L537,388.5 L541,388.5 L541,378.5 L542,378.5 Z" fill="#000000" fill-rule="nonzero"></path>
            <path id="Line-2" d="M172.5,301 L172.5,305 L485.5,305 L485.5,306 L172.5,306 L172.5,310 L163.5,305.5 L172.5,301 Z" fill="#000000" fill-rule="nonzero"></path>
            <path id="Line-2" d="M172.5,361 L172.5,365 L485.5,365 L485.5,366 L172.5,366 L172.5,370 L163.5,365.5 L172.5,361 Z" fill="#000000" fill-rule="nonzero"></path>
            <path id="Line-2" d="M172.5,401 L172.5,405 L485.5,405 L485.5,406 L172.5,406 L172.5,410 L163.5,405.5 L172.5,401 Z" fill="#000000" fill-rule="nonzero"></path>
            <text id="replicator.start()" font-family="InputMono-Regular, Input Mono" font-size="17" font-weight="normal" letter-spacing="-0.104615382" fill="#000000">
                <tspan x="714.077902" y="186">replicator.start()</tspan>
            </text>
            <text id="starting" font-family="Helvetica" font-size="17" font-weight="normal" letter-spacing="-0.104615382" fill="#000000">
                <tspan x="514" y="171">starting</tspan>
            </text>
            <text id="Connecting" font-family="Helvetica" font-size="17" font-weight="normal" letter-spacing="-0.104615382" fill="#000000">
                <tspan x="50.0417593" y="171">Connecting</tspan>
            </text>
            <text id="App-code-calls:" font-family="Helvetica" font-size="17" font-weight="normal" letter-spacing="-0.104615382" fill="#000000">
                <tspan x="714" y="162">App code calls:</tspan>
            </text>
            <text id="Busy" font-family="Helvetica" font-size="17" font-weight="normal" letter-spacing="-0.104615382" fill="#000000">
                <tspan x="97.6250045" y="211">Busy</tspan>
            </text>
            <text id="Offline" font-family="Helvetica" font-size="17" font-weight="normal" letter-spacing="-0.104615382" fill="#000000">
                <tspan x="86.4953681" y="311">Offline</tspan>
            </text>
            <text id="Connecting" font-family="Helvetica" font-size="17" font-weight="normal" letter-spacing="-0.104615382" fill="#000000">
                <tspan x="50.0417593" y="371">Connecting</tspan>
            </text>
            <text id="Busy" font-family="Helvetica" font-size="17" font-weight="normal" letter-spacing="-0.104615382" fill="#000000">
                <tspan x="97.6250045" y="411">Busy</tspan>
            </text>
            <text id="running" font-family="Helvetica" font-size="17" font-weight="normal" letter-spacing="-0.104615382" fill="#000000">
                <tspan x="514" y="211">running</tspan>
            </text>
            <text id="suspending" font-family="Helvetica" font-size="17" font-weight="normal" letter-spacing="-0.104615382" fill="#000000">
                <tspan x="514" y="271">suspending</tspan>
            </text>
            <text id="App-is-backgrounded" font-family="Helvetica" font-size="17" font-weight="normal" letter-spacing="-0.104615382" fill="#000000">
                <tspan x="714" y="271">App is backgrounded</tspan>
            </text>
            <path id="Line-2" d="M625.5,363 L625.5,367 L696,367 L696,368 L625.5,368 L625.5,372 L616.5,367.5 L625.5,363 Z" fill="#000000" fill-rule="nonzero"></path>
            <text id="App-comes-to-foregro" font-family="Helvetica" font-size="17" font-weight="normal" letter-spacing="-0.104615382" fill="#000000">
                <tspan x="714" y="371">App comes to foreground</tspan>
                <tspan x="714" y="391">(only continuous mode)</tspan>
            </text>
            <text id="suspended" font-family="Helvetica" font-size="17" font-weight="normal" letter-spacing="-0.104615382" fill="#000000">
                <tspan x="514" y="311">suspended</tspan>
            </text>
            <text id="starting" font-family="Helvetica" font-size="17" font-weight="normal" letter-spacing="-0.104615382" fill="#000000">
                <tspan x="514" y="371">starting</tspan>
            </text>
            <text id="running" font-family="Helvetica" font-size="17" font-weight="normal" letter-spacing="-0.104615382" fill="#000000">
                <tspan x="514" y="411">running</tspan>
            </text>
            <g id="cell" transform="translate(476.000000, 257.000000)" fill="#F5A623" stroke="#000000" stroke-width="2">
                <circle id="Oval" cx="9.5" cy="9.5" r="9.5"></circle>
            </g>
            <g id="cell" transform="translate(476.000000, 156.000000)" stroke="#000000" stroke-width="2">
                <circle id="Oval" fill="#ED2226" cx="9.5" cy="150.5" r="9.5"></circle>
                <circle id="Oval" fill="#F8E71C" cx="9.5" cy="209.5" r="9.5"></circle>
                <circle id="Oval" fill="#F8E71C" cx="9.5" cy="9.5" r="9.5"></circle>
                <circle id="Oval" fill="#2FB44C" cx="9.5" cy="249.5" r="9.5"></circle>
                <circle id="Oval" fill="#2FB44C" cx="9.5" cy="49.5" r="9.5"></circle>
            </g>
        </g>
    </g>
</svg>